<mxfile host="app.diagrams.net" modified="2024-05-03T11:55:25.451Z" agent="Mozilla/5.0 (Macintosh; Intel Mac OS X 10.15; rv:125.0) Gecko/20100101 Firefox/125.0" etag="-A7_fOC3Em_uLpWv5WBS" version="24.2.5" type="device">
  <diagram name="Seite-1" id="-LTqE0yUUvBryBLMvd_F">
    <mxGraphModel dx="2003" dy="410" grid="1" gridSize="10" guides="1" tooltips="1" connect="1" arrows="1" fold="1" page="1" pageScale="1" pageWidth="1169" pageHeight="827" math="0" shadow="0">
      <root>
        <mxCell id="0" />
        <mxCell id="1" parent="0" />
        <mxCell id="y5K2M07fjjBGlo7hxbQY-3" value="" style="shape=image;verticalLabelPosition=bottom;labelBackgroundColor=default;verticalAlign=top;aspect=fixed;imageAspect=0;image=data:image/jpeg,/9j/4AAQSkZJRgABAQAASABIAAD/4QBwRXhpZgAATU0AKgAAAAgABAEGAAMAAAABAAIAAAESAAMAAAABAAEAAAEoAAMAAAABAAIAAIdpAAQAAAABAAAAPgAAAAAAA6ABAAMAAAABAAEAAKACAAQAAAABAAABe6ADAAQAAAABAAABHQAAAAD/4QkhaHR0cDovL25zLmFkb2JlLmNvbS94YXAvMS4wLwA8P3hwYWNrZXQgYmVnaW49Iu+7vyIgaWQ9Ilc1TTBNcENlaGlIenJlU3pOVGN6a2M5ZCI/PiA8eDp4bXBtZXRhIHhtbG5zOng9ImFkb2JlOm5zOm1ldGEvIiB4OnhtcHRrPSJYTVAgQ29yZSA2LjAuMCI+IDxyZGY6UkRGIHhtbG5zOnJkZj0iaHR0cDovL3d3dy53My5vcmcvMTk5OS8wMi8yMi1yZGYtc3ludGF4LW5zIyI+IDxyZGY6RGVzY3JpcHRpb24gcmRmOmFib3V0PSIiLz4gPC9yZGY6UkRGPiA8L3g6eG1wbWV0YT4gICAgICAgICAgICAgICAgICAgICAgICAgICAgICAgICAgICAgICAgICAgICAgICAgICAgICAgICAgICAgICAgICAgICAgICAgICAgICAgICAgICAgICAgICAgICAgICAgICAgICAgICAgICAgICAgICAgICAgICAgICAgICAgICAgICAgICAgICAgICAgICAgICAgICAgICAgICAgICAgICAgICAgICAgICAgICAgICAgICAgICAgICAgICAgICAgICAgICAgICAgICAgICAgICAgICAgICAgICAgICAgICAgICAgICAgICAgICAgICAgICAgICAgICAgICAgICAgICAgICAgICAgICAgICAgICAgICAgICAgICAgICAgICAgICAgICAgICAgICAgICAgICAgICAgICAgICAgICAgICAgICAgICAgICAgICAgICAgICAgICAgICAgICAgICAgICAgICAgICAgICAgICAgICAgICAgICAgICAgICAgICAgICAgICAgICAgICAgICAgICAgICAgICAgICAgICAgICAgICAgICAgICAgICAgICAgICAgICAgICAgICAgICAgICAgICAgICAgICAgICAgICAgICAgICAgICAgICAgICAgICAgICAgICAgICAgICAgICAgICAgICAgICAgICAgICAgICAgICAgICAgICAgICAgICAgICAgICAgICAgICAgICAgICAgICAgICAgICAgICAgICAgICAgICAgICAgICAgICAgICAgICAgICAgICAgICAgICAgICAgICAgICAgICAgICAgICAgICAgICAgICAgICAgICAgICAgICAgICAgICAgICAgICAgICAgICAgICAgICAgICAgICAgICAgICAgICAgICAgICAgICAgICAgICAgICAgICAgICAgICAgICAgICAgICAgICAgICAgICAgICAgICAgICAgICAgICAgICAgICAgICAgICAgICAgICAgICAgICAgICAgICAgICAgICAgICAgICAgICAgICAgICAgICAgICAgICAgICAgICAgICAgICAgICAgICAgICAgICAgICAgICAgICAgICAgICAgICAgICAgICAgICAgICAgICAgICAgICAgICAgICAgICAgICAgICAgICAgICAgICAgICAgICAgICAgICAgICAgICAgICAgICAgICAgICAgICAgICAgICAgICAgICAgICAgICAgICAgICAgICAgICAgICAgICAgICAgICAgICAgICAgICAgICAgICAgICAgICAgICAgICAgICAgICAgICAgICAgICAgICAgICAgICAgICAgICAgICAgICAgICAgICAgICAgICAgICAgICAgICAgICAgICAgICAgICAgICAgICAgICAgICAgICAgICAgICAgICAgICAgICAgICAgICAgICAgICAgICAgICAgICAgICAgICAgICAgICAgICAgICAgICAgICAgICAgICAgICAgICAgICAgICAgICAgICAgICAgICAgICAgICAgICAgICAgICAgICAgICAgICAgICAgICAgICAgICAgICAgICAgICAgICAgICAgICAgICAgICAgICAgICAgICAgICAgICAgICAgICAgICAgICAgICAgICAgICAgICAgICAgICAgICAgICAgICAgICAgICAgICAgICAgICAgICAgICAgICAgICAgICAgICAgICAgICAgICAgICAgICAgICAgICAgICAgICAgICAgICAgICAgICAgICAgICAgICAgICAgICAgICAgICAgICAgICAgICAgICAgICAgICAgICAgICAgICAgICAgICAgICAgICAgICAgICAgICAgICAgICAgICAgICAgICAgICAgICAgICAgICAgICAgICAgICAgICAgICAgICAgICAgICAgICAgICAgICAgICAgICAgICAgICAgICAgICAgICAgICAgICAgICAgICAgICAgICAgICAgICAgICAgICAgICAgICAgICAgICAgICAgICAgICAgICAgICAgICAgICAgICAgICAgICAgICAgICAgICAgICAgICAgICAgICAgICAgICAgICAgICAgICAgICAgICAgICAgICAgICAgICAgICAgICAgICAgICAgICAgICAgICAgICAgICAgICAgICAgICAgICAgICAgICAgICAgICAgICAgICAgICAgICAgICAgICAgICAgICAgICAgICAgICAgICAgICAgICAgICAgICAgICAgICAgICAgICAgICAgICAgICAgICAgICAgICAgICAgICAgICAgICAgICAgICAgICAgICAgICAgICAgICAgICAgICAgICAgICAgICAgICAgICAgICAgICAgICAgICAgICAgICAgICAgICAgICAgICAgICAgICAgICAgICAgICAgICAgICAgICAgICAgICAgICAgICAgICAgICAgICAgICAgICAgICAgICAgICAgICAgICAgICAgICAgICAgICAgICAgICAgICAgICAgICAgICAgICAgICAgICAgICAgICAgICAgICAgICAgICAgICAgICAgICAgICAgICAgICAgICAgICAgICAgICAgICAgICAgICAgICAgICAgICAgICAgICAgICAgICAgICAgICAgICAgICAgICAgICAgICAgICAgICAgICAgICA8P3hwYWNrZXQgZW5kPSJ3Ij8+AP/AABEIAR0BewMBIgACEQEDEQH/xAAfAAABBQEBAQEBAQAAAAAAAAAAAQIDBAUGBwgJCgv/xAC1EAACAQMDAgQDBQUEBAAAAX0BAgMABBEFEiExQQYTUWEHInEUMoGRoQgjQrHBFVLR8CQzYnKCCQoWFxgZGiUmJygpKjQ1Njc4OTpDREVGR0hJSlNUVVZXWFlaY2RlZmdoaWpzdHV2d3h5eoOEhYaHiImKkpOUlZaXmJmaoqOkpaanqKmqsrO0tba3uLm6wsPExcbHyMnK0tPU1dbX2Nna4eLj5OXm5+jp6vHy8/T19vf4+fr/xAAfAQADAQEBAQEBAQEBAAAAAAAAAQIDBAUGBwgJCgv/xAC1EQACAQIEBAMEBwUEBAABAncAAQIDEQQFITEGEkFRB2FxEyIygQgUQpGhscEJIzNS8BVictEKFiQ04SXxFxgZGiYnKCkqNTY3ODk6Q0RFRkdISUpTVFVWV1hZWmNkZWZnaGlqc3R1dnd4eXqCg4SFhoeIiYqSk5SVlpeYmZqio6Slpqeoqaqys7S1tre4ubrCw8TFxsfIycrS09TV1tfY2dri4+Tl5ufo6ery8/T19vf4+fr/2wBDAAEBAQEBAQIBAQIDAgICAwQDAwMDBAYEBAQEBAYHBgYGBgYGBwcHBwcHBwcICAgICAgJCQkJCQsLCwsLCwsLCwv/2wBDAQICAgMDAwUDAwULCAYICwsLCwsLCwsLCwsLCwsLCwsLCwsLCwsLCwsLCwsLCwsLCwsLCwsLCwsLCwsLCwsLCwv/3QAEABj/2gAMAwEAAhEDEQA/APq7yB6UeQPStjyB6UeQPSuMDIWABgcVZ8uOr32celPW1wwOKAKSwjcKteQPSroiUEGp9sX+f/1UAZfkD0o8gelaoSMnAp/kD0oAx/IHpSrAAwOK1/IHpR5A9KAKPlx/5/8A10eXHV7yB6UqwAMDigCl5K0eSta3lx/5/wD10eXHQBk+StKIlBBrX8laPJWnZgZ+2L/P/wCqlCRk4HU1fMSjk1MtnKZAkYJclQAOck9MUWYIyhGhJGCMeoxS+SApbB4Gc4r0bxt8PvGXgnSbbUtVtBcm9kEMEEckbyyylC4REDFmYr2A68deK/Mv43/t3WnwPczeKvAOv2wy0aST2D20TEHb9+QKuc9s579KfK+xvddz7rUF/uc/TmnqhDDdxz3r8ZJ/+CuEGox+Z4d8GSSKQdrSyqMEf7prAvv+CrPxDghM6eGdPt4SQpeeYAAt7k0cr7A2j9xvLj9R/n8ad5KYzuH51+GVr/wVI+KU/lTx+H9NeNzwVkOCB7jOKvzf8Fc9f0W6hstc8OaZ5kxAVBduJGHsNuc/hRyvsYH7dfuNwQsAT2JxUwts8Afj2r8j9K/4Ks6eSq6v4OkGTgiC5DHA5OAwB6fhXbeFf+Crn7NfiHVH0i/g1KyuoT+8RI45lUA4JLBicDuVyfQUKL7Afp0tszE7FJ28kgHH503Y1cz8NfiN4S+Lfgm08f8AgS5N1pl6XWNpNyNmNtjDaQCCGGOQM9uK77ylqgMlUJYCrRgAGSKteWnanbDQBn7Y+1IBuIX1rR8laURAHNAFT7KewpvkSjnFaVHHegDL8uT0o8qQ8YrW2xf5/wD1UbY+1AGX5Eo5xQsbhgSK0uO9PCRk4FAFSnbDVswgDOOlRcd6AKzDKkCqnlyela22L/P/AOqjbF/n/wDVQBk+XJ6UeXJ6VrbYv8//AKqNsX+f/wBVAGT5cnpR5cnpWtti/wA//qo2xf5//VQBk+XJ6UeXJ6VrbYv8/wD6qNsX+f8A9VAH/9D7e8gelHkD0rY8gelHkD0rkswMlYBuHFWvJWrqwAMDirPlx0WYGT5K0eStbHkrR5K0WYGQIlBBqfbF/n/9VaHkrR5K0WYGfti/z/8AqpQkZOBWgIQTipBaEEGizAzvIHpR5A9K2PIHpR5A9KLMDH8gelOWAbhxWt5A9KcsA3DihICj5K0eStbHkrR5K1YGP5QHON3t61658HNKs5/F0WuaoQbWyK7c/wB88g4PpjPpXnfl7PnXqORXHeOfiXdeBfh/4il0mSNL+2sRFatJ9w3Nw/kx5+jMM+1NAcx8f/jq3xE+N91p+izmTSPBcosrcgBllvph+/cbeW2Z28ZwORxzX4H/APBcz9rjxDP8PPB/wQ8P6hPaW1/dteX8MJKsiRfu1HJBw5OcV+1fiH9njxX8NvBVpf6dA0dlpD/arm8DqWOOZJHO7l2JOT/dr+ZP9pq68O/tE/EbXdd8RxtMjTeTaSR5Egig+Tcp7FuvrmtwPzr1f4weKvBXinSvAehRh7bEDPH1mYyEclun61U/aJ1TXde+J+j+EJZmhs5hAVVcqj+YRuz7ivs3w98Bop9Ui1q20mXU7q3QRwzvC0khXtlsDketdf4p+A974ra2TxN4fvDPC6mKaOJt6kHjBxQB8EfDz4p+MdR+MaeFbdd2lwStCI0BXasY4znHU1wl5c69c/H3UtW1T5p9OE80AkzhVjQlCB9a/WG1/ZT8beBtCvPHKeHmCiA3E8iNGbgmMZ4XduzgenNct4f+At/8WZLHxZp2gyXb3sImt7tkMJ2Z6PkDHI5B59qAPg/4FeNPiX4mg1+7vZHkzBK1u78ES7TgDOOBXgXhS78QeH/D/iTWNNeZtQMqWrEHc6AnMhwOeTxnGK/cyD9l74keG7dzY6ZHHH/djky2D1IGME+x61wv/DMXiee7fW4vDSpdOGDyYVCx7ZGcGhgfoN/wQa8b+Odf+EPi3wj4zuTMtvPb39nHN95Ipi27Hp82PfvX73CJycYr+fT/AIJ/zeIPg7+0dYWWuQLZ6fr1s+nMC6hA4+5nBOPmPev6JEiUsMDsD+BrnAyltcMDirPkrWx5K0eStAGP5K0eStbHkrR5K0AY/krR5K1seStHkrQBj+StHkrWx5K0eStAGP5K0oiUEGtfyVo8laAM4pGQRUHkrWx5K0eStAGP5K0eStbHkrR5K0AY/krR5S1seStNeFdp+lAGP5cdO8latrGm4fX0q35cf+f/ANdAGT5K0eSta3lx/wCf/wBdHlx/5/8A10Af/9H9DvIHpR9nHpW8bGQc7f5Ui2jbh8veue6AxPsp9KFgG4cV032M96d9iXtRdAYPkrR5K1ufY2o+xtRdAYghBOKf9jatkWhBBqfyB6UXQGALQgg1P5A9K2PIHpR9nHpRdAY/kD0o8gelbX2U+lH2U+lF0Bi/Zx6U9bXDA4rYW1wwOKs+StFwMfyVprwjacelbXkrSiFM/N070DszlJN0MbTEcICx/Dmvza+Inj2LWNQ0LwtqzMkGp+IbHzZFwW8mF/PPynOceWTgjnFfon8SLhdJ+Huq36Eh0gkA29cupC4+pr8d/Eusiz8c6JceUrrAl7dDzWAI8tBGrcnrlz700I5v9pj46fF7xFdXthq0kw0+7vCyqyqNiZAAynHQZrsvDPw08C3FpC0OnxJuRJC/lKTwM5/E15v8cvFNzrXwwlYFdv2hXRwpwQh+YbumfbPPavoX4dSwXOg2cyHP+joD+VbgbFh4T0fS1EFjCBuHGBt/lXTp4fsGhCyRsH7EHkH1Haun8lBJDLgBeBn0rba3JTKyBs9MD/61K67geda9oSNYXMEIMwmTbtOAzcYwT0r4s/ZpZPDHiLxl8G7h3xo2ofbrAsTlrLURuXGR0VhtweR3Ar9Ho9NW7URZ2t646e9fCHxI0mf4d/tPeDfH0Y22viOOfQLzsu+UGeAn6MmwHoM0XXcD27UrTzUKwl9yjvWVcaVFI0VvcDZjB3BiefpXq15p9tDGkzdHJHT+6cGuC1+xlDx3UTbCHGPzobQHz38Q/A/+iC8tVMMi/vUPR45AfvAj8+K/V79mL4rn4s/C63vNTdf7X0txaagByWaMcSfRhx9a+Btc8/VbI21wwLKp2tjvXIfAD4mv8EPi5Fq8gMOjantsr9GOVClsLJgZ+4TuPsKwA/bxIlkG5OgpfJWr1uHnijnwAkoBQgjDAjIxz6VeNoRzQBh+StHkrWz9nFJ5K0AY/krR5K1seStHkrQBj+StHkrWx5K0eStAGP5K0eStbIhBOKf9jagDD8laPJWtz7G1H2NqAMPyVo8la3PsbUG0IGaAMPyVprRKqlvQVteStHkA8daAOZ3o3y7evtTvs49K6JrM4PyfyqBbXDA4oAxvsp9KPsp9K6LyVo8laAP/0v1XFuCcEVIbKLsOa2FtG3D5e9W/sbVyWYHM/ZT6UfZT6V032NqPsbUWYHM/ZT6UfZT6V0xtCOaYLfPFFmBzn2U+lH2U+ldN9jaj7G1FmBzP2U+lKtrhgcV0v2NqPsbUWYGIIQTin/Y2rZFoQQan8gelFmBz/wBjaj7G1dB5A9KPs49KEgRz/wBjaj7Ls+d+g5NdF9lPpSi155HFWbto+YP2mNQ/4R34RX+4Am9eO3A+p55HTAr8LPiDrkOm+JFMv/LDTEIUENkTSMWBJPHypX7Jft0ar/Zvw/0rTVbAu75pOBzhOTX4L/FjX1g8T362sW6VY7eEYwxKhMn5evduKI6uyMCx4g8RWF58N57e6uHSaeQSLDuBiUgZwPckAV9yfDa5EPhixngO7zIEz7ADmvysu/FF3e+CJpNVmRIyGMX7vHt1HQ57da/Tf4NIb3wbpEiksJLdGXjqGHFdDA+itM1FZ4gsxyB2rvbV1k2QxHbnBIPpXEabaRWwBmGMfj/KvQtNX90szKBlgB9K5wNiKWKUfZx8h6A4r4//AGzPDOo+IPgzqV/o3OpaO66vabPvCazdZgoP+0FZa+x4LVvNLg7ff0rlPFOjxXWjyWzRCT7QrqQeQ4IwR+PvQB5t4R8S6f498G6Z42s3EkOp2cVymAcZlVT3A7c+3Q81l6uI5CVJ4TmvCP2RLi40v4e6r8I7xsz+B9WvNKLnktbsRLA30Mbrj06HkED6E1aMOGtyMHaSD60AeY6rKIlJQ8V4j4m0cXSlSm9GOSPWvfNWtTGArjkDJ+lcPf6awR7mEZJBx7UAfo/+xZ8VJvHfgP8A4QnXnM2reHyF8xz/AK22k4Rh7g8Y6jvxX2wkCvuxyFAJ+jHAr8G/hj8Q7r4N/E2w8dWZP2aJvLu4x0khfAY4H90ZI7+lfvnYizv7OLULAhrSeKOaEgghlkGR+RoApNaQ7TjrVX7G1dB5A9KPIHpQBz/2NqPsbV0HkD0o8gelAHP/AGNqPsbV0HkD0o8gelAGALQgg1P5A9K2PIHpR5A9KAMfyB6UeQPStjyB6UeQPSgDH8gelIbfIIxWz5A9KPIHpQBz5tCBmo/KFdGbfIIxUBtCBmgDD2GjyVrY8laPJWgDH8laPJWtjyVo8laAP//T/aH7JD260n2U+ldJ9nh7U3yVrnA537KfSj7KfSui8laPJWgDnRa+o4p5souw5roBCCcU/wCxtQBzP2U+lN+zj0rqPsZ7077EvagDl/sp9KPsp9K6b7G1H2NqAOZ+yn0pv2celdR9jPenfYl7UAcv9lPpSra4YHFdL9jaj7G1A7Mw/JWnpArOFPc1s/Y2oFo45Uc9qBH5O/8ABQnUntbzwzpRzhYJJiB13Hiv54vjDrjx+O9XuluPKAuNqsn3124XJ+lfvd/wUQvy3xf0nSEbi3skYj038/yr+XD41+JL2Xx5fNbk5eR5GAONx8wcD6gUqCftGOztex1XiPx1rFn4Kk0QXEqRMisqCMFGBbliTyD+tftR+zzqr/8ACrtAlWUP/oUAbg9hg/rX87c/iVr3S3+1u7KC0aqT90Y4/Wv3y/ZXuft/wS8N3IO4yW2P++TXSxH1pY62LW6KO24v1B7CvS9CvmYg5yHOAPrXiqWc76iuUyMc16JpU80Ua/Z/lCkZB9q5wPYIJiwKA80zUPs0UDvI+fLGUABOfXpWFpbTzKfOHD8Dn1rsLQQW4RZMYBGQecigD86LOzl+Gf7aWo6PAxSz8d6KJ0U/dN3pztkj3aNs844Wvrm40p1gjzJvJAk6ds9Pxr5r/bOkHhCDwf8AG21TZc+EtdtvtLD/AJ9L/FtLnHUKG3EDPSvrO4lha2MqHPMZOOwIz/MHpQB5Nq+mbo2VRlTkk+/pXnurxeXAY064NexajcI0Lxkcsa801iBWJx6fSgDyHVII5ISJRkgHj1r9U/2CfisfGvw9m+HWsOZL7w0dkBb701rIeH5/unjHUemK/MDUvs4Zlf5sdR61pfBX4o3XwS+OOi+MY5v9CeX7Ld9dv2echWyP9gEnpQB/RF9nztwPv5I/CnfZT6Vs25injjuLNh5UqK6kcjDjPHsR3qz5K0Ac79lPpR9lPpXReStHkrQBzv2U+lH2U+ldF5K0eStAHO/ZT6UfZT6V0XkrR5K0Ac79lPpR9lPpXReStHkrQBzv2U+lH2U+ldF5K0eStAHOG2wMkVEYkII/pXTmBSCD3qH7FF6UAcuLfPFP+xtXSGziAyBUfkD0oA582hAzUfkrXRm3yCMVB9jagD//1P3g+wyen+fzo+wyen+fzrqxCCcU/wCxtXOByP2GT0/z+dH2GT0/z+ddf9jb0/X/AOvR9jb0/Wgdn2ORFk4IOKn+yn0rpvsbUv2NvT9aAs+xzItCTgCn/YZf7v8AKujFoQQan8gelAWfY5X7DL/d/lR9hl/u/wAq6ryB6UeQPSgLM5X7DL/d/lR9hl/u/wAq6ryB6UeQPSgEcr9hl/u/yo+wy/3f5V1XkD0o8gelBuzlfsMv93+VKLGQEHb/ACrqfs49KU2rY4HNNGFn2P56P2+r6WT9o29gbrZWlqCPQbcn9CK/k++KWtXV/wCOtQnibBSTj/vokfoK/qX/AG99QWT9pLxdPGcrCEiB6fctwf5g1/Jz40mlfxLetwWZ16Ee9Vh/jZvL+GiW082aKSK4XftO5sHpmv3+/Yv1cR/AvwyztsWNGQg89DyPyr8C9FZDDcyTHAKg+vQV+0n7HOrgfAbSo5Gw0MsykehFas5z9NV1i1kvfKPG5Dzg9DXRaZcxLILgkccAeteKWOvQX9rEUYb1ABPtXR6RezmRmLfKozXOB79aX+9f3nyD+H61Kuubd0aNuIBz7V5cmtb4NqvzWZ/aqjLLIct8vQ9TQOzMz9oHwtbfEj4PeIPBF0/N9aXEUbf3WOSj/VTyPpXLfs3/ABEuPiB8DPDPiC7f/S20+KC6bOczWxMcgPuHBH69Oa7G/wBWzAbZh5gYFSp757V8hfsv6nF4O8S+O/hAQRFo+sSXdqD2t9QHnDHsHDjH+IoEfat/qG5yqcH19K4DWpyWJb527H3qe81ICVpN3HWuM1fUx9/PBoA5XX7jy0ZlPzYNeXeJbmOa0Edwu9G4bBwcHrXSa3qYmJeM5HT8a801kpIdgfcX4K/WgD+gn/gnh8Zp/iz8EV8K6tKJdY8KlLKV2+9Lbn5o3Ofbj1r78+xtX8zv7A3xrX4PftKWMWrS7dO8SAaZeEn5FeVh5T4GfutgZ7dTxX9QZtwM+xwen+e9AHPfY2o+xtXQeQPSjyB6UAc/9jaj7G1dB5A9KPIHpQBz/wBjaj7G1dB5A9KPIHpQBz/2NqPsbV0HkD0o8gelAHP/AGNqPsbV0HkD0o8gelAHP/Y2oNoQM10P2b/PFI1twf8A61AHNNCCpFVvsp9K6b7G1BtCBmgDmfsp9Kb5A9K6NoQVIqt9lPpQB//V/onFoQQan+zg8dK2Ps49Kd9lPpXOCMT7Ev8Aep32ADnNbS2uGBxVnyVoN7ruc79kJ4xSfYAOc10ghBOKf9jagLrucz9lPpR9lPpXTfY2o+xtQF13OZ+yn0o+yn0rpvsbUfY2oBtHM/ZT6UfZT6V032NqPsbUGCOZ+yn0o+yn0rpvsbUfY2oN7ruc0trhgcVbWAFgPWtr7G1KLbYQ7dBzTQXR/J7+3PqSS/GT4gXchyIJb1W+sSFMfzFfyt6ynm6tcOAY23AEE5+7nPrX9Nv7c19/xcD4oXSn/l81UL74L1/MnqAc30xfht75z7+9Oh8bCt8Fje0EyR2ksRGQ6sM/UV+sn7GusJN8FhblsvFe3AI56Mcjn6V+UXh0pIPKU5Oecc1+kP7GV0Ivh3c20vT7bKce2K1bRgfo/wCF9StiAuOh9a9G03V4TK0aOCO49q+fNHuYkYmJDz05rtbC+ihfO0hjWAI9oXUIkkTapAJHNSNPJsPlHDbsiuDXUMiM54BFR3msSj5YTnPHpQbto7SW7cMJLo5K87uuMV8jajer4J/a3tNRk4i8VaNLZt6NPp5Ein6lS1e7W+oTtKC7ZIPTNfJn7Ul4+h2fhT4jocP4c1i1uXcfxQTkQyg47bSSfpQYH2QdRkW53ueJOMH0NZ2oXbybkK/Lg81h/wBsfaIyzEMrLG6gfw/LuP6VlXerx8Dd97gfU0Ac9fusaMjHkNn8K871q4hIYg9jXQapfSCd9vJweK4PUC9wSZPlb0oA5fUNTe3njurTdDJCwdZFPKlTkH8K/r+/Y6+M9t+0P+zv4e+JKYW7eBbW+QHJjuYBtZT78A56Hsa/j01ALHJun4Ude/Ffsf8A8EUvjdHonjvxH+z7qMv+i6zF/atkXz/r4VO9F+qfMTwOMdeKAP6GPsp9KPsp9K6T7OOnpj9ad9jagDmfsp9KPsp9K6b7G1BtCBmgDmfsp9KPsp9K6LyVo8laAOd+yn0pv2celdJ5K96d9mi7daAOb+yn0pv2cHjpXRvCoBBqp5A9KAMb7Ev9+kNmACQ2TW15A9KPIHpQBz5glHOKZ5TdxXRi3U8EcU5rSHacdaAOZ8laPJWtz7G1H2NqAP/W/phW1wwOKs+StbHkrR5K1zgY/krR5K1siEE4p/2NqAMVYRuFWvIHpWiLQgg1P5A9KAMfyB6UeQPStjyB6UeQPSgDH8gelHkD0rY8gelHkD0oAx/IHpR5A9K2PIHpQYB6UAY/kD0o8gelaoiT/Ip/kD0oAx/IHpQLYP8ALjrxWx5A9KUQYOVHNNDW5/FN+23cO2u/E29fp9p1I5/3nb+hr+bO/lL6lO5GV3c56V/Rv+21MTdfEv0a5vx+TEH9a/nJuYmFzMWHBanQ+NmtU2dAlt7bfM6leDgr0/Kv0F/Y/wBSEfhjVreU48q9OP8AgQr879DljEpSbhRX2/8Aso6sIRrtnN8oJjcZ/vZ5/SlZmJ+kGjXibAc8da7G31qKNcL81eB2OsOoxG2RXS2uqSsMg5FID3uHVvPt/wB32HNZlxqJJwDXm9prcsRVCcBuDVq41VFYFm4JoA6iO/lt5vNkOQOceteU/GnSD4z+GWseGx/y9WkqIO4YKduPxrpZdRDc5471iXF/5waM/MpBAHrQBjfBrxwni34X6H4juwVkktI4pT1xJCpRs/iAK7K51Jnk3KcqvIr5U+AF9LpGm+IfBUjYOkanOI0PaK7InU/gOK93N845ZuO9AG9e3sLrv3fN3rkr27UtuB4qK71CNlKq3JGBxXK3N3Ih+figCPVrpS+48r3re+Avxg1L4G/HTwp8VtNYg6LeRSSqDgG3kws0Z9crkd6861O9QhgD2Nee6nLkMG6YOaAP9FHS9Q0vXdMtte0YiWz1CFLqFlPBWcKy4/DP0+tafkD0r8y/+CQfxyl+Nn7HGjaVq8vman4OuZtEucnLFIxviYnvleAQT6V+pIiT/IoAyvIHpSG3yCMVs+QPSjyB6UAc+bQgZqPyVrozb5BGKgNoQM0AYfkrSiJQQa1/JWjyVoAxJoAx+WoPsp9K6LyVo8laAOd+yn0o+yn0rovJWkaEbTQBznkD0o8gelbH2celO+yn0oAxfIHpR5A9K2PIHpR5A9Kdn2A//9f+pryVpRCCcVsCEE4qQWhBBrnAxxaEEGp/IHpWx9nHpTvsp9KAMXyB6UeQPStjyB6UeQPSgDH8gelHkD0rY8gelH2celAGP5A9KPIHpW19lPpTfs49KAMfyB6UCADnFbX2U+lH2U+lAGQUJ420zyB6VtfZT6UfZT6UAYvkD0o8j0FbHkD0pDCAMkU0Nbn8Lf7bfF18SFPX7ZqX/o2v53rxGE0u4fxV/Rj+3FBsv/iRGfvLeakcfWWv52L3K3Ugxk7+lOh8bNapXsY8bhGfnYYX69q+oP2ebt7TxDq9tNySkbZHv0/Wvl+yhKznecb+D7Zr234LXslt4vmgByslqDn1MZzWraMT9A7HUwowzV1tlq8arhmrwW11dyR81dHbayVYB271gB69BqcxmZj93tW+morIil26GvKLXVFf7rZrYj1HC7SeaAO2utSbnyjkVjTamGjaPfgsCOnrWGb1iMVmyz/vADzz0oA8m0ad/D/x81q3Y7Y9a0yG4VOxkt2Mb4+g2/nxXs66icjCHP1r5z8fXsml/EDwd4lY/I1zLp0n+7cISuf+B4r3N540Xdn1/Q4/nQBqT302eVwKwL+9YktngdaqXV8wB+lcrc6msm6MHmgCS9vo2b5TXHapcrIrJ6girVxO2etcxf3Dbsg0Afu7/wAEFfjhN4P/AGltc+CuqyhLTxrY+Zbxu3AurEeZx2BdB3xnp1r+vJdsnCjPy7vwPFf5vv7OnxkuPgX+0L4M+L1m7K+gavbXMhB4aAEeYDjsRkGv9IrSL3Tda0qDWtGAa1vYkuYHByHjmVHBHthu9AFbyB6UeQPStjyB6UeQPSgDH8gelIbfIIxWz5A9KPIHpQBz5tCBmo/JWujaAbTxVTyVp2fYDH8laPJFbHkrQYVPFFn2Ayfs9MaEbTWsLRBzupzQjaaLMDnPI9BTfKfuK2vIHpR5A9KSAx/IHpR5A9K2PIHpR5A9K3uu4H//0P6yxEoINT7Yv8//AKq1DaEDNMEIJxXOBnbY+1N471rfY2oNoQM0AZe2L/P/AOqjbF/n/wDVWiIQTin/AGNqAMwJGTgU/wAj0FaItSp3HoKfti/z/wDqoAyfKfuKd5HoK1NsX+f/ANVG2L/P/wCqgDJ8uT0o8uT0rW2xf5//AFUbYv8AP/6qAMny5PSjy37jitbbF/n/APVQUjYbR1NAGPti/wA//qpyJAXAc8Z5+n5VpG0IGaYsK5GaaGtz+GD9vCzlg8W/FC0dcFL3UUx7iTP9DX85epoiXLMf4nOPwr+nf9vPQJ9Q+L/xS0SCPMk9/qewDuSzge1fzRahpLW9wyvyCZNv1GR+HNOjpN3NauuxyabWkIzjdxn616t8OpktfG8D9GNvJFj1ODXmkllMoO1fm7dOtdd4VuDB4vs5G4J35/EYqTE+tra5I5B+7zWhFfyOw2nPNcLaXrhyTyDXQ212xwCKAPQ7C/dMbjW0uqjcPm7+n/1q4OC4O3NWknbO5e1AHff2kPWqFxqJzwea5cX0gILHjvTJNRjDBwc456HtTs+wHn3xzmln8ByaxbjElhcRX0ZHZrdg2PxUV6jFq3mW63cbblkwfwkAZT+NcX4iR/EmnXPhe0tnvTdxyRPFCNz4b5TgDvzxXl+jeN77whBaeB/FZ3RWjLaCdgUkR1UhVcEAnkgZxj3os+wHv0l+XbGeDWLMdsjNVNJySCDxx+vSorqc4P0oswKV3O20464rjb65lEmT0zWveXgjBJPIFcZf6hK+cCkBV1CfzsxjJ3ccdea/0Hv+CSHxqk+PH7BHgbxLqcm+/wBKgk0S7OdzBtPbYpPuyFD/APqNf56yyAjceXHQe9f1Zf8ABtT8avMi+In7OF7LkQGHXbNGOTgnypcDt1Ukf4GnZ9gP6ntsX+f/ANVG2L/P/wCqtDyVo8laLMDP2xf5/wD1UoSMnAq/5K0eUKEBSaAbTxVTyVrY2GjyVrcDH8laPJWtjyVo8paAMfyVpGhG01r+XH/n/wDXSNGhUihgc95A9KPIHpWx5A9KPIHpWFn2Ax/IHpR5A9K2DAAMkVHti/z/APqos+wH/9H+vjGeKd5Qq2YQBnHSowMnArCz7AQbDTevBq6InJxin/ZT6UWfYDP2IORRWh9lPpTfs49KLPsBRxniniEE4q8trhgcVZ8oDmiz7AZf2NqDaEDNaVO2Giz7AZAhBOKf9jatTyhRsaiz7Ds+xl/Y2pDalRu9K1djUjRkqR60WfYLMxuvBpQig5T7w6fX86v/AGU+lI1oSpGOtNJ3BH8hn/BRD4f6n8N/2s/F9tcKXh1S4TU7cnpJFPtbj0y24EHBHev5mv2iPAsfgf4pappUC4trgrc257FJBu49Oe1f3d/8FhfgbH4g8C6L8btGXE2jSG0vio5MFwcox7nDfLxnHXpX8hP7Y/gcar4d0/x5BF++smaKXH/POQ7gT7AjH/1qFpNtm7PywuEZW3NwByav2ErR6hp7SptZXAz7E1Z1G08zEjDaCSo+qjJqixMMkE03BhlTd7DIqTnPdbW7GRz3rprS4Jww6CvObd5cZA9D+db9rdSom1uCadn2A9GhuxsPNXIboFSAa4GG9ZeH4rYt76MjANCTA6Zpm2mq4kfPB5rNF2pIBNWVuIwwKtg54OOn6VuBxC+O9T8LeOUu7R2gF9ZuiPD8reZvGfmPAIHIz+HNcB8SLxfFt5bmE5luRNDcOBuzGFPlOSf4lfnI5rvdYOmy6mi38PnW4O4IOCGHp9am1TU/DMNutlo1h5BiIfzGIyw7j1oAi+HmrTat4J0u8uWzLJDEJPZ4gQ364rsppHPzdhXi/wAJrj7No1xoTtn+zr67jH0ZwR+hr1eW6UIVY9jQwMTU54yCFPOK4ydpC2CK6G+dWb5TmsGc4bJrBJgVGIT7xI9x1r9Qf+CNPxrb4Kf8FFPAE9y/k2fiOabQrogkBhfqY4y/sJCn8+lfl3Ntk+XPB4zWj4V8Y6l4E8ZaX480til1pN5a38ZU4Ia3kVyAffbW4H+roY0DlD1AB/A9KXylrlPhv4v0/wCJPw68P/ETTCGt9c0y2vk29MTRo+fwPH412PHehgV/Ljp3lLVjbH2607yn7isEmBT8uOneUtXPI9BTfKfuK3Ap+XH/AJ//AF0jRoVIq/5A9KPIHpQBjmAAZIqPbF/n/wDVW2bfIIxUH2NqAMvbF/n/APVRti/z/wDqrU+xtR9jagDKKRkEVB5K1uG0IGaj8laAP//S/sS2GjyhVry5PSjy5PSgdn2KwQ5qWpPLk9KPLk9KAsxgGTj1qQwgDOOlKsbhgSKtdeDQIoAZOBT/ACn7irnlp2p2xqB2ZT8j0FN8uT0q9sajY1A1F9ij5cnpQY3AyRVskKcGl68Gg2M+itDy4/8AP/66PLj/AM//AK6BNoz6Q9K0fLj/AM//AK6Ro02nHWgxSZ5V8WvhtpHxd+GWt/DfWFGzWLSS2VyM+W5UhH/4CSDX8Pfxf+Gl08PiD4ZeJYjHPtuNOkDdUljYqD+RBBHB9a/vPHmxESr8pXkH0xX8yX/BXL4Hx/D/AOPEPxM0uMxWHjCAsSi/KlxaDa4wOQWB3dOaxqJmzaP4vNZ0K50y9udNukKzQTPG6n+Fk/xFcfq1ufs0zKP4lb8B1r7q/at8CzaJ8QG8QWabIdajDMB0Ekf3gPqK+NNZspEsZ8Lz5bY/KkjA2bOYtEsg6MEx+FayzncOa5HS5zJY27oeCgI+nStlZSGBJ4zW4G+LjJwK0Le5KkBvWufSVG5U1ZWRtwoA6+KYuwweM1oF+Pl61zdtJIOT2rUjmZmBHNAHO+JZvIRJolDPkABuAT2BNeY+KPHWi6Rdx6deMI2corGM5UPJ90HPOD6ivTvEsDXGnNFCCZRkqB69q/OD4pw63e+Ix58MsEwSC12n7zsvQgdSScDigD7h+G83leKtctZSNriK6Qg5BEowSMe9evTsGBx6V8+/C3w1reg3enQ6mGdo9NRJ884cnIBOe1e+SMFUg0AYdx1rGua25lLHIrIuEbOcUAZLkDg1m3BjGTIu5e49R6VcuTjn0rCuZGf5B34oA/0cv+CJ3xTk+Ln/AATQ+G9/cSedcaHbT6DcOTlt2nzFUz3yY8Gv1V8la/mH/wCDXP4oSa58APiZ8HbnP/Eg12DU4AckBb+II4B6cGEnr3r+o7y4/wDP/wCugDJ8oUbDWt5cf+f/ANdI0aFSKAMiir3kD0o+zj0oAo07Y1X1tcMDip2hG049KAMnYabVzyn7ineQPSgCjRV7yB6UGAAZIoAoMMqQKqeXJ6VrbYv8/wD6qNsX+f8A9VAH/9P+yxopEHzDpUYIPSvMNE+KGmawAbWeKYegYV3dv4g0yZxHMoRj+NLmXc6DUqRI2YjA4p0T2s4HkurZ9CK14oAqkkf1o5kBQ+zj0p32U+laQWMjIo2n2/OslUY/ZGctrhgcVZ8lampu9a2NeSPcj8laPKWpN4pT0NK6JsZsluGYEUv2celWqUdRTMyt9lPpR9lPpWhSMcKSaV0P2SM77OPSnfZT6VKske4c1Z3rTJuu5Qa2CqWZNwHVfX2r4T/4KEfAn/hcv7MutoQv9p+G4zqtpIcZaS3UmQZPQOg7mvvl3Gw/SvH/ANoZhH8BvG8jdBot8f8AyC6/zqW1Ybpo/gN/aJ8CyeLvhzOkK5udN/0mDHUKuWkXPuoNfk3qFoLhSgHDL344I96/enWxCulXLTqrBYnyAQ3QMO2e9fi1cWttdSpI6ZLsG47DnFRS2Oc+dtCkIsIYP4gCo+itk/pXSCRCcA1zsyJo+oPYzHYjSMyMehyefpWvHzIVH8OM+nPv3rUDZt+lXgcHNUYDgZNXVO4ZFAGhDMxUgVo20kqfNjpzWTBwMmtSFgVwO9AFmaaOVD5qbhjkA4z7Zritcg8OeH7VvFGswC4a0RmVwu5lUDPBPOR2NdkInJAIrnPFum/2h4YvLGQctFIAPqpoA7ZrnTp7S2GjqUt5I0lBb777hu5PoB2qjcKWBIrnfA96l94L0u7LZItIQfqARXULhxx0oAxm4+U9TWfco2Dkdq3pbfLbl7VmXcb7Tx60AcfdRvg4Fc1MQwLjoOK7C4APDcDvUWg6EdR1sxzjEUBDk9jjn9aAP66f+DXDQpLDQfixfMCHkk0rzPxE+K/rR2Gv5n/+DaTSoY/hj8VdTVdpbU7CEH2iSY/+zD86/pnA3EL60AVqdsNXTbFQWx0qDjvQBXpR1q0EjJwKf5A9KAK+8U7jvU3kegppjcDJFADdsX+f/wBVG2L/AD/+qm0oGTgUALti/wA//qpCkZBFPMbgZIqOgCHyVo8lamooA//U/YaT7R4cuCzW95p7rzkBgDivUbD4z+Joook8P3aSGMDKyfMxx2I61+pOpeHtE1JGW/tILhSMDcgyP0xXkuv/ALNnwq8RMbqbS1hm6l4G8ts++Ky9kjoPnvwj8ddVEP8AxPIhE56lRtDfTNe2+G/jFpGokILpoXyMBjxmvNtd/Y9s0Jl8H6vcW5b/AJZznzE/xrxjXPgf8Z/CbulrFFqkIB/1WFbHtkjn0qbMD9AbTx9bMApaOfPGQ4/xrpLbxJpdwglk+XnGRz/KvySvdW8R+HFey8QWF3Yb1KuXDHKnrgrntUGm+K9XtpFu/Duv3Vtj/lkjB/zDHP6Uiedn7GQ39jc/LBMjE8YDDP5U7cNu7sQGzjsTivzb8H/GjxJYkx+JrqO/X+FinlyD6kV3Vt+0Hd22qx28djm2eUJ5okJ2p64Pp70/aso+7VIJyKkLqeK+U9Q/aK0rRoFlnu5JIz94BN20dyduTx7V1ug/G3R9cd4bSZXaMBmDApgHp94CkmiednvJYDinqM8jH515vB8SdExtmKZ9mB/lmulsvFegXZ+ZxG2MjOQPz6Vu2ikdTSEZGKrR31nLjypVfPI2nP8AKpvNQd6xReg3yhRsNP8AMTsc/SngqzBQQc+nNbsj2aK+GPCnaT0J7V+fH/BS39ofQPgh+zRqmkTkLqXieG4sbWLOG8gjM7g9BtjYtyR6Dniv0QkWOMHdx7kcfjX5Xf8ABWj4O6d8Uv2Rtb1e3s1k1HQQrQTnl44JyUnwRxjbj3rnaYM/if8AC/7Y/h7x38Qv+FZapaJBLqizw2MsRwvzqfLDA9S5/LvivkqO0+xnymOXjJiI7h42YMPwPfoa8Ut/gt8QE/af8LWmj27tNpurWrXCxqcwxwzKSzHpt25JOcAda+gNamhm8UardWgwk13cFT2KbmIP4k1dLY5zwPxf4aPiHR7tLNgl1A5aAnozDoD7Zrybwh4s/taU6RqYMWoWx2SqThTj0Fe6291vEqxttJl4OOmD1/CvBPjR4KmnEXxC8NZgvLdgJVTjKryWx3+nWtQPXIPmBVevpWjbxtjBFeKfDD4mWXieBLDUSI7xQVXPG8Dr7fhXu1qu4j0oAvw24K4A61oQW2wjcMVbtYBgP2rTEKkZFAGftj7dazryHzEaOQfKwIP0NdAYRjisu8ikaNlUckED60AeXfC6fd4Jjt2PzW1xc27D08qQqB/OvR4XUDaTyeK8z+HKGC98QaV/DBqbuo/2ZlWQH8STXqRiwMr1oACjY6Vm3MbcgirgeQOAwxzSzoxyxHA5NAHJXNuM4I613/hjS47CxBPLzg7j6HsKw9OtDNcedKPkXnP0rskMZ2lTtCnI49KAP7Nf+DbrTI4f2avHuqxjm58SCPPqI7eIn8i9f0ZLCNwxX4K/8G42mwRfsQeINT/juPGF6v1VLW2/qa/f/Yg5FAFIxSEYx1qL7G1aVFA7MzTasBn0qPY1a3Xg0jRptOOtAjK2Gm4zxVzyn7ineR6CgCn5K0eUKteXJ6UeXJ6UAVdh703y4/8AP/66ueU/cU7yB6UAUfLjp3krVzyPQU3y5PSgD//V/ss8xqtRXIUYY1RJwMmmCRCcA0HQawuIgc5qCW6ct+7xt/X86p0jHCk+lArodcWNlfxlNRRJVIxhkDkfia8n8SfAb4V+Ji81/pMCyEH54cxuT+HGa9L+0U7zmqnBDPjrxH+xt4edmuvCGqXdi+CVQkOoPbOe1eI63+zf8ZPDkpbR7yHUl6kSYVsewz1r9M/ONMZkPVcn16Vj7JAfj1q+j/Evw7I0GtaPMnGGZELKR36ZrGTxlPbXTTThreVsAhwVHHTOcV+y729tMjRzwo4YYO4k8H8K4PXfhl4G8RKy6npdu3BG4rzS9kgPy0bXZ7zbNNNM3PWBsge/tXc+H/itqGhQeUZ3mYHCiVhkfmefpX1Prf7LXgC6dptEe4sHYHiJht/I15Rrn7Lfi+JWGianb3MeDhLmPr7Ejn8RU2YHmFv8bfHVjeSvHPHdxNyFYmMr7V6tZftKXmkaT9sa5mSZVLNDBiQnHYZ65rx7Wfgt8QNIjaK+0VLhVBJeyuzHx7KRz9K8o1XwnBp5b7dHqWltg5LxC4X8SOQPU0hXXc+3dC/a7t7u5Wyvrho7gnAiuV2kkc4+XivYtP8A2iNDbYmqxKGkBYGJxjA6nr2r8lLm3uvMS5tdStLlwBtB/cSbie4cAHjtnmuC8WWWo6rGh16O5Ty0cebbP90EdfkJHHvT9pLsF0fvBp/xf8FagArXpgL8ASA4yfXjp618i/8ABRD47+DPBP7J3iXT/t9u8viKBLKNUcEhZG+Z9pPRVyxzjpjrX5cp4t8WaTc+domv3EcSF2SG5UMh3LtAYnovqa+Qv25rjxl8RPhXqGpai0Ml1b2k8ERhDFH89CeAO6ngfpQ6jGz8y4vjV8L/ABvYazN4SaOPX4NPnkQNAsc8qhGywKnpgZ55r89oEkFpG0n3yC7H3Lc14L8HB4w0v9rbwrbeWfLvpBaz85zEYmWVOuMDPNfQEcGI7iRz8ollwfQK5wKqlsYWZ4/ZxSFXIHV3raKxygxyIHDKV2npk8VSsQRCTg43ueBnirUbqxBjOee1ak3R8H/GDwLe+CtefxFokjR2k7rLEy/8sGz0IHJyfavafg/8X7bxBEvh/wAQMsV8i4Uk/fHrnoPxre+OV/bad8M79po1eQ+XEmfvZc44HXivzuM01lOLhS8M2NyvyCCOlAz9n7R1a3XFa0QyuBXxv8A/jsuu3EPgrxI3+mBSkU+Cd+P4eAcfU19kwcEqeq4z+NAC+XJ6VmTNh8jkjnFbx6GufdlE53HigDybwtE2n/EbX7Vv+W8VvOB/30hP/jor1KvMd/kfFNGXgXumADtloiGI/DLdetd39oO3d2IDfgTigCSdgGz6VC0xkUxr1bgdutVpZHduOlUtQnltbCe5gxvjjZl3dMgZGfagDsYWtLTT3muJFRY03SMSMKp756VieGviN4R8WXM2naLdC4NqA0hRHIUHkZOMdPevmCz8Q+MPid8F9auGj5WTyAIQcuin5gPwryfw42v6B4FtIPCqTLd6zdnzmgBDb0baiODghccntQB/pp/8G89j9k/4J+pcIMfa/EepTZ9cLGh/9AFfujX4p/8ABvxo+qaZ/wAEvPBD6yMXdxeanJN/vifaeenVTX7WUAgooooN20FFFO2NQYDaKdsajY1ADaKdsajY1ADaKdsajY1ADaKdsajY1AH/1v7MSkZBFQeUK3DaEDNR+StK67nTYyBGxOAKa6MAQw61tCJQcmoZokY/LzRdB7JHPmEAZx0qKt1oBtPFVPJWmIzajdxsP0rUeFdp+lUWiTB/woFddzL85qje5x8p6mtDylqjPAPvDtQF0Vmkfaarb5V+Yr0qakYZUgUMbMue9l3YUAKeDkZrn7+GwnytxEsuePmUEfrW1cRvnpWLcxvzxgVhZ9jnPKPEXwy+H+uuTqul2754PyBT+Y6V4pr37NPgG4dpdHlnsSc4EUhwp/Gvpe/jAfIbJ61zN3M6gjviizBHw/4m/Ze1HDtpurxygAnbcxB8+2Rj+Vfn/wDtSfCvW/hf4FuNT8QrbQxS3Aijlhc4343Z2ngADnPT3r9q9Qupg+CM+1fhR/wWMn8bRfCo+ItLvSLT+zZreK2AJCToDuJ9fkzz/Wkze67n486nonwd8MaF4k+Mfw4ht7vUre2mZuQ3ly4I3RDqoPcng9q+DUiSLSFhduBG4DH+JWyxb8/WvG/2dfGPiD/hoi48AzqwsvEGnXli0BJ27Y4WkjIzx15J7d69TjufO8PRT/f/ANGGQe+Fbd/KrpbCbVj4hv8A4u6/qPj1PCegyNZWts7edOFywQH5iAeuBzXq3hz4naN4kjuoNIkluZbFWLCRQjOyjO4dB2ri9S+EM76pqOr6RPlNUR1b+/ExBAA9R9K0vhV8Iz8P5J7vU7gXlzc5XLZA2njBHXn2rU40mfKUms3fiPV9S8W+OUnutOs3crbM21C78KpOfX0rxvU7qzvrma+sbYW0TZVYwxYLn3NfUfxbXwt4C8QXnh2Cy8621S3S5mj3n91ID8pUfXt+dfL80kcnmxJF5SA8KSMjPSg2N74ZXz6T480nUFbaFukDH2YgV+ykG45lPQhNx98Zr8WtBdINUtplPMcqN+Rr9n9PmW40+GeI7lljRwen8NAGhJKgRiDyAa54WP2uVnlYqAQDjkjNaznCE+1c5qWpzaY7wwDc87HjpgRDc559Bz79s0AMPgbS/wC0bXXJjIZ7ZXQEsAAG9faqviC2SxksIInBZ5XRgD2Vd4/QU6+uIFtgJTJI8ynI3DgEfWuC8TNdv4g0u7t1ZYg7E56Y3iMn9aAO1pksYljaJsYYEc9OacxCrubgUm5CpY8qOv0pXQGhokWjaFpZstMjWzhg3HC4CqW6k9jmr2gX/hC7ulfQ5LN5eGYRMpIOe/PUn8a+afjFr2p3PgPUItOJh8m5FvLtPOMfMOPbvXkfhTxVqnw78L6VoWgBI59UY3csixh3dScbCx6UwP8AUv8A+CKKi1/4JrfD4FwzTtezHAxgvcyE/wBK/VxZEb7pr8tv+CO9mbD/AIJq/CKM48yfRVuJACDhpJHZs4+or9QLYFhkUAXKKKUdRQA4Ic1LRSgZOBQAlFSeXJ6UeXJ6UAR0VJ5cnpR5cnpQBHRUnlyelHlyelAEdFSeXJ6UeXJ6UAf/1/7Xvs8p4IoNoQM1pUdeDXOdhkNCCpFVvsp9K6Dy4/8AP/66Ro0KkUIDnTb5BGKgNoRzXQeQPSgW6ngjit7ruRY5s2wIIxVdrFNpwvauv+yQf5//AFUjWkODii67h7JHBtaNtPHaqZs2Ixt6137WKkEYqsdNUDOP1ouu4eyR5/JZKqkY5xVL7I393/P5V382ng8gZqodPX+7RdCaZ57PZsWxise6sJCpDDjFeoPppZwVWqV1pTc/LTMLPseHXukEtlOa4/UdLuAxBTH5V9Bz6IcFgnA5rHl0S3lU7hzihhZ9j5T1bSZPM649ycYr8wf+CiWgaVqHwGlTVYxLEs8aKRznzzhgP+A5r9uNS8Jea+QnHc8H9K/OX9un9mL4kfGP4Vr4f+Gqo11aXCXXkyEKZQFIZU5CgjtkjmsHF9gs+x/HJqn7Pfgb4K2uqfGYO95qdtbSxWA6eS12pg59fvV8ovF5WhG0ThkjK/TII/rX6W/tjfD34ifC/wCGOp+HfiDo13pd159qqtPGVR/36nhvunj0NfmLfu8ml3PlsBvThuoGB3+lXTTSCzPmI/GTT5/F8fgvQbRbhy2JJC4RQAfmJLEdBXqEPirSbnTJ76ORXW1R3dUORhASRk89uo/CvmuT4ea5o9xrU1pZhrmfebeQKW3hwc4xnH44rrfhN4P1PQ9CvX8ZEINQyjxdNing/mK0EfMt5qTfFLVtQ8WeJ5GsLa0j/drEuSzHO1CTyRxzjpXkE42wSNkHcx5bk4HTpX1PrXgGNNBn8KpdKAJxPHMgzkFSpQ49PyrwXVPCet28jQ21lMUX5DIEJDD8qAOFsknjk+0J/DyPwr9mvBl0134S0y7j5D20Zz7dK/J7SvCeoT/LHCxOcYIwc/jX6n/DFmHgPT7aUESJAsfTjKnnnpQB3LFWUrnrxWNdWBvNRgkc7WhYuvGc7uD+laci4UhuM96gF1FBcl1cfdwCfWgCZVdpTJJISMbMFAOtZesaZJNo5Vx/qMOrbTkjeHYfpWF41v8AWZ/C98+hF5LqMhoREpLNgdsCu20bwp48161gFtp99cNJEhA8phlj1GCBQwOIlw0Sqc8+1WI9OBjIkyFIPOD0r6c8H/sa/tLeN2WDw/4U1GcyEFGWIgbj0HtzX338D/8Agif+1d8RdQjl8V2zaDaHazS/Z3mfryGDlR+o+tYJMdmfn78Lf2F/2j/jroEmv/DPwdLqmj6g8mZyFEcjIfLcbiwI54zj3FfdXwP/AOCD37RvirVLJNfisfDtvFIAsskfnyRKSDlSTwQemRjNf2C/sI/scW/7I37Pmk/BWW+fW/sEss/2uWLydzTuzEBfnPBI6kD3r7otdAt4cYgT8Sc/4VuI+dv2QvhPffs9/s6eD/gcLg3p8M6bFZNOVVPNZSSzYHvX1lZahIuElXGeKqQ2KIPu7farBt+OlAG2t1blgC36Grqvbt9xs1yf2VuxqzCJIxknkc0AdQEZhkCnLG4YHHesaG9kT71W11RtwyvegDZoqmNRRiF9eKsLNFkfNQBNsajYaeHQnAPWpGQ7TQBWooPHNMDqeKAH0UUUAf/Q/twooornOwKKKKACiilHUUALsajY1TUUAQ7Go2GpqKAIRCvenGCFhtC9eKkpyffH1poCqNOVTuI6e9QzWMbnjpW4/wBw/SqNbmZlNpkJUjHaqZ0iMDJQYH0roaQjIxQBx0ukwufuDFVJvDFhcoUdQNwxz0rt/JWjyVoA8A8dfAf4eeP9Om0fxXplvqdrMSrxXMayoUA4wHHGfzr8e/2iv+CAv7LPxnkn1PweZfCd7PuLNZ/cJPbb0A+lf0B+Uo5pybC4G0df89qAZ/JHZ/8ABs74IsJvN1LxZc3io2VyShwPpX0F4N/4N7f2T9BRBr8NzqUhwWeRzjP0r+luaKPcDtFJ5Sd1GPpQc5+BNp/wQ6/YztNsUPhyM7SMFgK6u6/4I5fswNpH9kReH7RI84+4N2PrX7eXOnW0rbsY+lZdxpcAO4HpzQB/LV8Z/wDg3O+DHjBpNR8BTR6bcOSQhAC57Zx2r5a8Nf8ABtp8VLOQabL4ntIrMOSpBJIBPHev7L/ssQ59P8+lX4o41QsFHHNAH8rvgv8A4Nu/Dkcajxn4raQ5G4RqcEd6+tvAn/Bv1+yV4djQeJDNqDqQc544r97fNzxgU6gD80vA/wDwSj/Y28Coo0/wja3BXAP2hQ24V9ReFv2UP2fPCDJJofhHSrcx427bVWK46EEntX0XRQNHM6Z4P8N6TCf7NsLWBh0CRBePwGP1rchtbePHylT/ALKgD+dWqKDdkC28Ycu5dvQds0FCeNtT0UHOVfIHpQYABkirVGM8UAUgkZOBT/IHpVzygOabQBV8gelHkegq1RQBSaOTB4qBQ6kNnpWpjPFO8laAKS3M+4YFW0u7oOCy8Z9ad5QHNNoAvi9J4K1ItyhYAgYrLIyMVEYsDO40AdIJLYnG79KfiH1/z+VcqpdWDBjxVn7VN60Af//Z;" parent="1" vertex="1">
          <mxGeometry x="938" y="170.00000000000003" width="169" height="127.31333333333333" as="geometry" />
        </mxCell>
        <mxCell id="oJCOY9mhAsnQ8i2lRgI8-28" value="" style="edgeStyle=orthogonalEdgeStyle;rounded=0;orthogonalLoop=1;jettySize=auto;html=1;" parent="1" source="oJCOY9mhAsnQ8i2lRgI8-25" target="oJCOY9mhAsnQ8i2lRgI8-26" edge="1">
          <mxGeometry relative="1" as="geometry">
            <Array as="points">
              <mxPoint x="770" y="370" />
              <mxPoint x="770" y="370" />
            </Array>
          </mxGeometry>
        </mxCell>
        <mxCell id="oJCOY9mhAsnQ8i2lRgI8-25" value="" style="shape=document;whiteSpace=wrap;html=1;boundedLbl=1;size=0.125;" parent="1" vertex="1">
          <mxGeometry x="660" y="340" width="100" height="100" as="geometry" />
        </mxCell>
        <mxCell id="oJCOY9mhAsnQ8i2lRgI8-24" value="" style="shape=document;whiteSpace=wrap;html=1;boundedLbl=1;size=0.125;" parent="1" vertex="1">
          <mxGeometry x="650" y="330" width="100" height="100" as="geometry" />
        </mxCell>
        <mxCell id="oJCOY9mhAsnQ8i2lRgI8-8" value="" style="edgeStyle=orthogonalEdgeStyle;rounded=0;orthogonalLoop=1;jettySize=auto;html=1;" parent="1" source="oJCOY9mhAsnQ8i2lRgI8-2" target="oJCOY9mhAsnQ8i2lRgI8-7" edge="1">
          <mxGeometry relative="1" as="geometry" />
        </mxCell>
        <mxCell id="oJCOY9mhAsnQ8i2lRgI8-2" value="&lt;div&gt;&lt;font style=&quot;font-size: 14px;&quot;&gt;NQC&lt;/font&gt;&lt;/div&gt;&lt;div&gt;&lt;font style=&quot;font-size: 14px;&quot;&gt;source code&lt;font&gt;&lt;br&gt;&lt;/font&gt;&lt;/font&gt;&lt;div&gt;&lt;font style=&quot;font-size: 12px;&quot;&gt;(.nqc)&lt;br&gt;&lt;/font&gt;&lt;/div&gt;&lt;/div&gt;" style="shape=document;whiteSpace=wrap;html=1;boundedLbl=1;size=0.125;" parent="1" vertex="1">
          <mxGeometry x="80" y="320" width="100" height="100" as="geometry" />
        </mxCell>
        <mxCell id="oJCOY9mhAsnQ8i2lRgI8-11" value="" style="edgeStyle=orthogonalEdgeStyle;rounded=0;orthogonalLoop=1;jettySize=auto;html=1;" parent="1" source="oJCOY9mhAsnQ8i2lRgI8-4" target="oJCOY9mhAsnQ8i2lRgI8-10" edge="1">
          <mxGeometry relative="1" as="geometry" />
        </mxCell>
        <mxCell id="oJCOY9mhAsnQ8i2lRgI8-4" value="&lt;div&gt;&lt;font style=&quot;font-size: 14px;&quot;&gt;RCX &lt;/font&gt;&lt;font style=&quot;font-size: 14px;&quot;&gt;image&lt;/font&gt;&lt;/div&gt;&lt;div&gt;&lt;font style=&quot;font-size: 14px;&quot;&gt;binary file&lt;font&gt;&lt;br&gt;&lt;/font&gt;&lt;/font&gt;&lt;div&gt;&lt;font style=&quot;font-size: 12px;&quot;&gt;(.rcx)&lt;br&gt;&lt;/font&gt;&lt;/div&gt;&lt;/div&gt;" style="shape=document;whiteSpace=wrap;html=1;boundedLbl=1;size=0.125;" parent="1" vertex="1">
          <mxGeometry x="360" y="320" width="100" height="100" as="geometry" />
        </mxCell>
        <mxCell id="oJCOY9mhAsnQ8i2lRgI8-9" value="" style="edgeStyle=orthogonalEdgeStyle;rounded=0;orthogonalLoop=1;jettySize=auto;html=1;" parent="1" source="oJCOY9mhAsnQ8i2lRgI8-7" target="oJCOY9mhAsnQ8i2lRgI8-4" edge="1">
          <mxGeometry relative="1" as="geometry" />
        </mxCell>
        <mxCell id="oJCOY9mhAsnQ8i2lRgI8-7" value="&lt;div&gt;&lt;font style=&quot;font-size: 14px;&quot;&gt;NQC compiler&lt;/font&gt;&lt;/div&gt;&lt;div&gt;&lt;font style=&quot;font-size: 12px;&quot;&gt;(&lt;font&gt;WASM, JavaScript)&lt;/font&gt;&lt;/font&gt;&lt;/div&gt;" style="rounded=0;whiteSpace=wrap;html=1;fillColor=#FFF4C3;" parent="1" vertex="1">
          <mxGeometry x="220" y="320" width="100" height="100" as="geometry" />
        </mxCell>
        <mxCell id="oJCOY9mhAsnQ8i2lRgI8-23" value="" style="edgeStyle=orthogonalEdgeStyle;rounded=0;orthogonalLoop=1;jettySize=auto;html=1;" parent="1" source="oJCOY9mhAsnQ8i2lRgI8-10" target="oJCOY9mhAsnQ8i2lRgI8-21" edge="1">
          <mxGeometry relative="1" as="geometry" />
        </mxCell>
        <mxCell id="oJCOY9mhAsnQ8i2lRgI8-10" value="&lt;div&gt;&lt;font style=&quot;font-size: 14px;&quot;&gt;RCX image&lt;/font&gt;&lt;/div&gt;&lt;div&gt;&lt;font style=&quot;font-size: 14px;&quot;&gt;parser&lt;br&gt;&lt;/font&gt;&lt;/div&gt;&lt;div&gt;(JavaScript)&lt;br&gt;&lt;/div&gt;" style="rounded=0;whiteSpace=wrap;html=1;fillColor=#FFF4C3;" parent="1" vertex="1">
          <mxGeometry x="500" y="320" width="100" height="100" as="geometry" />
        </mxCell>
        <mxCell id="oJCOY9mhAsnQ8i2lRgI8-15" value="" style="edgeStyle=orthogonalEdgeStyle;rounded=0;orthogonalLoop=1;jettySize=auto;html=1;strokeColor=#808080;" parent="1" source="oJCOY9mhAsnQ8i2lRgI8-13" target="oJCOY9mhAsnQ8i2lRgI8-14" edge="1">
          <mxGeometry relative="1" as="geometry" />
        </mxCell>
        <mxCell id="oJCOY9mhAsnQ8i2lRgI8-13" value="&lt;div&gt;&lt;font style=&quot;font-size: 14px;&quot;&gt;NQC&lt;/font&gt;&lt;/div&gt;&lt;div&gt;&lt;font style=&quot;font-size: 14px;&quot;&gt;compiler source code&lt;font&gt;&lt;br&gt;&lt;/font&gt;&lt;/font&gt;&lt;div&gt;&lt;font style=&quot;font-size: 12px;&quot;&gt;(.cpp)&lt;br&gt;&lt;/font&gt;&lt;/div&gt;&lt;/div&gt;" style="shape=document;whiteSpace=wrap;html=1;boundedLbl=1;size=0.125;strokeColor=#808080;fontColor=#808080;" parent="1" vertex="1">
          <mxGeometry x="220" y="70" width="100" height="89" as="geometry" />
        </mxCell>
        <mxCell id="oJCOY9mhAsnQ8i2lRgI8-16" value="" style="edgeStyle=orthogonalEdgeStyle;rounded=0;orthogonalLoop=1;jettySize=auto;html=1;strokeColor=#808080;" parent="1" source="oJCOY9mhAsnQ8i2lRgI8-14" target="oJCOY9mhAsnQ8i2lRgI8-7" edge="1">
          <mxGeometry relative="1" as="geometry" />
        </mxCell>
        <mxCell id="oJCOY9mhAsnQ8i2lRgI8-14" value="&lt;div&gt;&lt;font style=&quot;font-size: 14px;&quot;&gt;Emscripten&lt;/font&gt;&lt;/div&gt;&lt;div&gt;&lt;font style=&quot;font-size: 12px;&quot;&gt;C++ / JavaScript&lt;font&gt;&lt;br&gt;&lt;/font&gt;&lt;/font&gt;&lt;/div&gt;" style="rounded=0;whiteSpace=wrap;html=1;strokeColor=#808080;fontColor=#808080;" parent="1" vertex="1">
          <mxGeometry x="220" y="199" width="100" height="80" as="geometry" />
        </mxCell>
        <mxCell id="oJCOY9mhAsnQ8i2lRgI8-19" value="" style="edgeStyle=orthogonalEdgeStyle;rounded=0;orthogonalLoop=1;jettySize=auto;html=1;strokeColor=#808080;" parent="1" source="oJCOY9mhAsnQ8i2lRgI8-17" target="oJCOY9mhAsnQ8i2lRgI8-18" edge="1">
          <mxGeometry relative="1" as="geometry" />
        </mxCell>
        <mxCell id="oJCOY9mhAsnQ8i2lRgI8-17" value="&lt;div&gt;&lt;font color=&quot;#808080&quot; style=&quot;font-size: 14px;&quot;&gt;Kaitai Struct&lt;/font&gt;&lt;/div&gt;&lt;div&gt;&lt;font color=&quot;#808080&quot; style=&quot;font-size: 14px;&quot;&gt;RCX image declaration&lt;br&gt;&lt;/font&gt;&lt;/div&gt;&lt;div&gt;&lt;div&gt;&lt;font color=&quot;#808080&quot; style=&quot;font-size: 12px;&quot;&gt;(.ksy)&lt;br&gt;&lt;/font&gt;&lt;/div&gt;&lt;/div&gt;" style="shape=document;whiteSpace=wrap;html=1;boundedLbl=1;size=0.125;strokeColor=#808080;" parent="1" vertex="1">
          <mxGeometry x="500" y="70" width="100" height="89" as="geometry" />
        </mxCell>
        <mxCell id="oJCOY9mhAsnQ8i2lRgI8-20" value="" style="edgeStyle=orthogonalEdgeStyle;rounded=0;orthogonalLoop=1;jettySize=auto;html=1;strokeColor=#808080;" parent="1" source="oJCOY9mhAsnQ8i2lRgI8-18" target="oJCOY9mhAsnQ8i2lRgI8-10" edge="1">
          <mxGeometry relative="1" as="geometry" />
        </mxCell>
        <mxCell id="oJCOY9mhAsnQ8i2lRgI8-18" value="&lt;div&gt;&lt;font color=&quot;#808080&quot; style=&quot;font-size: 14px;&quot;&gt;Kaitai Struct&lt;/font&gt;&lt;/div&gt;&lt;div&gt;&lt;font color=&quot;#808080&quot; style=&quot;font-size: 14px;&quot;&gt;Compiler&lt;br&gt;&lt;/font&gt;&lt;/div&gt;" style="rounded=0;whiteSpace=wrap;html=1;strokeColor=#808080;" parent="1" vertex="1">
          <mxGeometry x="500" y="199" width="100" height="80" as="geometry" />
        </mxCell>
        <mxCell id="oJCOY9mhAsnQ8i2lRgI8-21" value="&lt;div&gt;&lt;font style=&quot;font-size: 14px;&quot;&gt;RCX &lt;/font&gt;&lt;font style=&quot;font-size: 14px;&quot;&gt;bytecode chunks&lt;br&gt;&lt;/font&gt;&lt;/div&gt;" style="shape=document;whiteSpace=wrap;html=1;boundedLbl=1;size=0.125;" parent="1" vertex="1">
          <mxGeometry x="640" y="320" width="100" height="100" as="geometry" />
        </mxCell>
        <mxCell id="oJCOY9mhAsnQ8i2lRgI8-31" value="" style="edgeStyle=orthogonalEdgeStyle;rounded=0;orthogonalLoop=1;jettySize=auto;html=1;" parent="1" source="oJCOY9mhAsnQ8i2lRgI8-26" edge="1">
          <mxGeometry relative="1" as="geometry">
            <mxPoint x="950" y="370" as="targetPoint" />
          </mxGeometry>
        </mxCell>
        <mxCell id="oJCOY9mhAsnQ8i2lRgI8-29" value="" style="shape=image;verticalLabelPosition=bottom;labelBackgroundColor=default;verticalAlign=top;aspect=fixed;imageAspect=0;image=https://img.brickowl.com/files/image_cache/larger/lego-yellow-rcx-2-0-programmable-brick-884-28-455657-93.jpg;rotation=-30;" parent="1" vertex="1">
          <mxGeometry x="1150" y="230" width="171" height="171" as="geometry" />
        </mxCell>
        <mxCell id="oJCOY9mhAsnQ8i2lRgI8-37" value="&lt;font style=&quot;font-size: 14px;&quot;&gt;WebPBrick &lt;/font&gt;&lt;font style=&quot;font-size: 14px;&quot;&gt;Integrated Development Environment (&lt;font&gt;IDE)&lt;/font&gt;&lt;/font&gt;" style="rounded=0;whiteSpace=wrap;html=1;fillColor=#FFF4C3;" parent="1" vertex="1">
          <mxGeometry x="80" y="480" width="840" height="40" as="geometry" />
        </mxCell>
        <mxCell id="oJCOY9mhAsnQ8i2lRgI8-44" value="code" style="text;html=1;align=center;verticalAlign=middle;whiteSpace=wrap;rounded=0;rotation=0;fontSize=14;" parent="1" vertex="1">
          <mxGeometry x="80" y="420" width="100" height="60" as="geometry" />
        </mxCell>
        <mxCell id="oJCOY9mhAsnQ8i2lRgI8-45" value="compile" style="text;html=1;align=center;verticalAlign=middle;whiteSpace=wrap;rounded=0;rotation=0;fontSize=14;" parent="1" vertex="1">
          <mxGeometry x="220" y="420" width="100" height="60" as="geometry" />
        </mxCell>
        <mxCell id="oJCOY9mhAsnQ8i2lRgI8-46" value="parse &amp;amp; split" style="text;html=1;align=center;verticalAlign=middle;whiteSpace=wrap;rounded=0;rotation=0;fontSize=14;" parent="1" vertex="1">
          <mxGeometry x="500" y="420" width="100" height="60" as="geometry" />
        </mxCell>
        <mxCell id="y5K2M07fjjBGlo7hxbQY-1" value="&lt;div&gt;&lt;font style=&quot;font-size: 14px;&quot;&gt;RCX&amp;nbsp;&lt;/font&gt;&lt;/div&gt;&lt;div&gt;&lt;font style=&quot;font-size: 14px;&quot;&gt;communication&lt;/font&gt;&lt;/div&gt;&lt;div&gt;&lt;font style=&quot;font-size: 14px;&quot;&gt;library&lt;br&gt;&lt;/font&gt;&lt;/div&gt;&lt;div&gt;(JavaScript using&lt;/div&gt;&lt;div&gt;WebUSB API)&lt;br&gt;&lt;/div&gt;" style="rounded=0;whiteSpace=wrap;html=1;fillColor=#FFF4C3;" parent="1" vertex="1">
          <mxGeometry x="780" y="230" width="120" height="100" as="geometry" />
        </mxCell>
        <mxCell id="oJCOY9mhAsnQ8i2lRgI8-47" value="&lt;div&gt;download firmware,&lt;/div&gt;&lt;div&gt;download program&lt;/div&gt;" style="text;html=1;align=center;verticalAlign=middle;whiteSpace=wrap;rounded=0;rotation=0;fontSize=14;" parent="1" vertex="1">
          <mxGeometry x="780" y="420" width="160" height="60" as="geometry" />
        </mxCell>
        <mxCell id="oJCOY9mhAsnQ8i2lRgI8-26" value="&lt;div&gt;&lt;font style=&quot;font-size: 14px;&quot;&gt;RCX&amp;nbsp;&lt;/font&gt;&lt;/div&gt;&lt;div&gt;&lt;font style=&quot;font-size: 14px;&quot;&gt;communication&lt;/font&gt;&lt;/div&gt;&lt;div&gt;&lt;font style=&quot;font-size: 14px;&quot;&gt;library&lt;br&gt;&lt;/font&gt;&lt;/div&gt;&lt;div&gt;(JavaScript using&lt;/div&gt;&lt;div&gt;Web Serial API)&lt;br&gt;&lt;/div&gt;" style="rounded=0;whiteSpace=wrap;html=1;fillColor=#FFF4C3;" parent="1" vertex="1">
          <mxGeometry x="800" y="320" width="120" height="100" as="geometry" />
        </mxCell>
        <mxCell id="y5K2M07fjjBGlo7hxbQY-4" value="" style="shape=image;verticalLabelPosition=bottom;labelBackgroundColor=default;verticalAlign=top;aspect=fixed;imageAspect=0;image=data:image/jpeg,/9j/4AAQSkZJRgABAQAASABIAAD/4QBwRXhpZgAATU0AKgAAAAgABAEGAAMAAAABAAIAAAESAAMAAAABAAEAAAEoAAMAAAABAAIAAIdpAAQAAAABAAAAPgAAAAAAA6ABAAMAAAABAAEAAKACAAQAAAABAAABe6ADAAQAAAABAAABHgAAAAD/4QkhaHR0cDovL25zLmFkb2JlLmNvbS94YXAvMS4wLwA8P3hwYWNrZXQgYmVnaW49Iu+7vyIgaWQ9Ilc1TTBNcENlaGlIenJlU3pOVGN6a2M5ZCI/PiA8eDp4bXBtZXRhIHhtbG5zOng9ImFkb2JlOm5zOm1ldGEvIiB4OnhtcHRrPSJYTVAgQ29yZSA2LjAuMCI+IDxyZGY6UkRGIHhtbG5zOnJkZj0iaHR0cDovL3d3dy53My5vcmcvMTk5OS8wMi8yMi1yZGYtc3ludGF4LW5zIyI+IDxyZGY6RGVzY3JpcHRpb24gcmRmOmFib3V0PSIiLz4gPC9yZGY6UkRGPiA8L3g6eG1wbWV0YT4gICAgICAgICAgICAgICAgICAgICAgICAgICAgICAgICAgICAgICAgICAgICAgICAgICAgICAgICAgICAgICAgICAgICAgICAgICAgICAgICAgICAgICAgICAgICAgICAgICAgICAgICAgICAgICAgICAgICAgICAgICAgICAgICAgICAgICAgICAgICAgICAgICAgICAgICAgICAgICAgICAgICAgICAgICAgICAgICAgICAgICAgICAgICAgICAgICAgICAgICAgICAgICAgICAgICAgICAgICAgICAgICAgICAgICAgICAgICAgICAgICAgICAgICAgICAgICAgICAgICAgICAgICAgICAgICAgICAgICAgICAgICAgICAgICAgICAgICAgICAgICAgICAgICAgICAgICAgICAgICAgICAgICAgICAgICAgICAgICAgICAgICAgICAgICAgICAgICAgICAgICAgICAgICAgICAgICAgICAgICAgICAgICAgICAgICAgICAgICAgICAgICAgICAgICAgICAgICAgICAgICAgICAgICAgICAgICAgICAgICAgICAgICAgICAgICAgICAgICAgICAgICAgICAgICAgICAgICAgICAgICAgICAgICAgICAgICAgICAgICAgICAgICAgICAgICAgICAgICAgICAgICAgICAgICAgICAgICAgICAgICAgICAgICAgICAgICAgICAgICAgICAgICAgICAgICAgICAgICAgICAgICAgICAgICAgICAgICAgICAgICAgICAgICAgICAgICAgICAgICAgICAgICAgICAgICAgICAgICAgICAgICAgICAgICAgICAgICAgICAgICAgICAgICAgICAgICAgICAgICAgICAgICAgICAgICAgICAgICAgICAgICAgICAgICAgICAgICAgICAgICAgICAgICAgICAgICAgICAgICAgICAgICAgICAgICAgICAgICAgICAgICAgICAgICAgICAgICAgICAgICAgICAgICAgICAgICAgICAgICAgICAgICAgICAgICAgICAgICAgICAgICAgICAgICAgICAgICAgICAgICAgICAgICAgICAgICAgICAgICAgICAgICAgICAgICAgICAgICAgICAgICAgICAgICAgICAgICAgICAgICAgICAgICAgICAgICAgICAgICAgICAgICAgICAgICAgICAgICAgICAgICAgICAgICAgICAgICAgICAgICAgICAgICAgICAgICAgICAgICAgICAgICAgICAgICAgICAgICAgICAgICAgICAgICAgICAgICAgICAgICAgICAgICAgICAgICAgICAgICAgICAgICAgICAgICAgICAgICAgICAgICAgICAgICAgICAgICAgICAgICAgICAgICAgICAgICAgICAgICAgICAgICAgICAgICAgICAgICAgICAgICAgICAgICAgICAgICAgICAgICAgICAgICAgICAgICAgICAgICAgICAgICAgICAgICAgICAgICAgICAgICAgICAgICAgICAgICAgICAgICAgICAgICAgICAgICAgICAgICAgICAgICAgICAgICAgICAgICAgICAgICAgICAgICAgICAgICAgICAgICAgICAgICAgICAgICAgICAgICAgICAgICAgICAgICAgICAgICAgICAgICAgICAgICAgICAgICAgICAgICAgICAgICAgICAgICAgICAgICAgICAgICAgICAgICAgICAgICAgICAgICAgICAgICAgICAgICAgICAgICAgICAgICAgICAgICAgICAgICAgICAgICAgICAgICAgICAgICAgICAgICAgICAgICAgICAgICAgICAgICAgICAgICAgICAgICAgICAgICAgICAgICAgICAgICAgICAgICAgICAgICAgICAgICAgICAgICAgICAgICAgICAgICAgICAgICAgICAgICAgICAgICAgICAgICAgICAgICAgICAgICAgICAgICAgICAgICAgICAgICAgICAgICAgICAgICAgICAgICAgICAgICAgICAgICAgICAgICAgICAgICAgICAgICAgICAgICAgICAgICAgICAgICAgICAgICAgICAgICAgICAgICAgICAgICAgICAgICAgICAgICAgICAgICAgICAgICAgICAgICAgICAgICAgICAgICAgICAgICAgICAgICAgICAgICAgICAgICAgICAgICAgICAgICAgICAgICAgICAgICAgICAgICAgICAgICAgICAgICAgICAgICAgICAgICAgICAgICAgICAgICAgICAgICAgICAgICAgICAgICAgICAgICAgICAgICAgICAgICAgICAgICAgICAgICAgICAgICAgICAgICAgICAgICAgICAgICAgICAgICAgICAgICAgICAgICAgICAgICAgICAgICAgICAgICAgICAgICAgICAgICAgICAgICAgICAgICAgICAgICAgICAgICAgICAgICAgICAgICAgICAgICAgICAgICAgICAgICAgICAgICAgICAgICAgICAgICAgICAgICAgICAgICAgICAgICAgICAgICAgICAgICAgICAgICAgICAgICAgICAgICAgICAgICAgICAgICAgICAgICAgICAgICA8P3hwYWNrZXQgZW5kPSJ3Ij8+AP/AABEIAR4BewMBIgACEQEDEQH/xAAfAAABBQEBAQEBAQAAAAAAAAAAAQIDBAUGBwgJCgv/xAC1EAACAQMDAgQDBQUEBAAAAX0BAgMABBEFEiExQQYTUWEHInEUMoGRoQgjQrHBFVLR8CQzYnKCCQoWFxgZGiUmJygpKjQ1Njc4OTpDREVGR0hJSlNUVVZXWFlaY2RlZmdoaWpzdHV2d3h5eoOEhYaHiImKkpOUlZaXmJmaoqOkpaanqKmqsrO0tba3uLm6wsPExcbHyMnK0tPU1dbX2Nna4eLj5OXm5+jp6vHy8/T19vf4+fr/xAAfAQADAQEBAQEBAQEBAAAAAAAAAQIDBAUGBwgJCgv/xAC1EQACAQIEBAMEBwUEBAABAncAAQIDEQQFITEGEkFRB2FxEyIygQgUQpGhscEJIzNS8BVictEKFiQ04SXxFxgZGiYnKCkqNTY3ODk6Q0RFRkdISUpTVFVWV1hZWmNkZWZnaGlqc3R1dnd4eXqCg4SFhoeIiYqSk5SVlpeYmZqio6Slpqeoqaqys7S1tre4ubrCw8TFxsfIycrS09TV1tfY2dri4+Tl5ufo6ery8/T19vf4+fr/2wBDAAEBAQEBAQIBAQIDAgICAwQDAwMDBAYEBAQEBAYHBgYGBgYGBwcHBwcHBwcICAgICAgJCQkJCQsLCwsLCwsLCwv/2wBDAQICAgMDAwUDAwULCAYICwsLCwsLCwsLCwsLCwsLCwsLCwsLCwsLCwsLCwsLCwsLCwsLCwsLCwsLCwsLCwsLCwv/3QAEABj/2gAMAwEAAhEDEQA/AP3r8uP/AD/+ujy4/wDP/wCurn2ZaX7MOwrQlFLy4/8AP/66PLj/AM//AK6ufZh3pfsw7CgopiJT05/Cp47dStWkhCjB4qTZjpQBnyQKG6U6OFcelXvL3cmjyRQBV+zqahkgUN0rQ2FeBR5e7k0AZJjI+6DSiLP3h+lavkijyRQBlGJh90H8qBFn7wP5VqbdvFGwNyaAMsxoOvFAiU9Ofwq9JArHNN2CPgUAZssK7qi8pe5rWMYfk1BJCufWgCh5Sev+fzqJ4lzxWj5K+n6UeSvp+lJ7AZfkioZLcFq2TGg68VBJEhbr/n86mzAyPIUelQSxkNhRn6VqvEueKj8oD0oswMR4sn5uKjKheBWzJArHNVpIFDdKaAynj3HNVpLcFq2TGg68VDJCpORVAYkkAC1nmEZro3hUriqJthnmgT2MnyVqGSEZra8hR6VDJCufWgmzMKS3Baq8kAC1uSQAnOKrPCpXFAjmJICWyBUOwrwK6EwAKc1TaAA8igcTCljkZsqccVGIT/y0OTWzLCu6q0kPOaT2KexkyxIG5qu8AY5UZrTkgVjmmiPZwKmzIMSWDDc8VF5QHpW1LHk5IqnJEpaizAxbiJS478VSkt8ngGt54MngUzyPakBz7J5Zx0qB0DHJrZuIhvzjtVOSJSOKT2AxLiM/wDI9qzjHJk/KfyroDGVXAHeqmGqbMD//0P6CvKXtSFQvArSjhXHpTJIVz61oBQEYbk0bNvArSjt1K1J9mWgDK8vdyamjjQDmr/2ZaPsy0AVRCDyoz+FIYlHDcVoxoIxgUySISHJoAoiJT05/CgxoOvFaMcKqMcU14AxyOaAM/wAuP/P/AOuoZFw3y1pfZh3pPIUelAGX5e7k0nlL3Navkr7f5/CoZIVz60AUPKT1/wA/nUTxLnitHyV9P0o8lfT9KAMvyRR5IrTMaA7T1o8pRknt19qAMvygPSjy19quvEjMNvORmmrBuGVGcelAGdJArHNVpIFDdK2TCqnB4zUUkHOfSnZgY/kjrj9KgkiUtW6IlMZ5HWqfkKeetIDK8lahkhGa2vJX2/z+FRSQqDnFAGDJbgtVaWIoMAVuSRKWqvJEu3FAGCiKc7vWmSRIW6/5/OtLyFPNQyQKG6UAZbwgn5eaj8nHWtIxkfdBqCRWB6UAUJIRiqDQAHkVt+WDy3FRPEueKBPYwZYV3VVkhGa35LcE5qpJCufWgmzMKS3Baq8kC4xW3LCu6qskIzQIwDbHPQ0wwqOG4rf8kVTuIMuOM8UAZEkSbcZFUTbg1sSW+W6GojAB14oAy/sy1HJCoGDWt5S9zVaeFe1J7Ac9JCpBqgbcHmuhKSxoQoGPeqhjZ1JcAH2qAMOSJNuMis8xJnrW5LCMGqBgGelAH//R/op8kUeSK1PJX0/SjyV9P0rQCjHCMU/yVrRjt1K1J9mWgDK8laPJWtX7MtH2ZaAMsW+egzQYAOvFaoj2cCgw7+TQBk+StJs28Ctb7MtH2ZaAMry93JqJ4MngVtfZlpfsw7CgDB8g+lJ5OOtb32Yd6hktwDwM0AZHkcbscetJ5OOta/lZUxkYHWoY4ywO8Hg4HFAGU9uHUqzNtJXKjocZIB7jJr8s/wBtz/grP8BP2MvGtx8GZ7abxL44tLaC7uLKMta2drFdgvE0twEkBLKQwTAJUq3RhX6h+L/F3hv4d+EdW8e+MZvs2kaFYXWpXsp42W9onnSHJ4zsRgPc1/nO/GL4u+Lf2gfjH4p+PPxAVxqXivUJtTlXsu/AhjAPQRRBI9vYqRSexnUlZH9Elj/wXvi1aWLy/DemQK+Nxt9RWZiSeoRyp9ug5HSveNA/4LQfDy/EZ1PR7shhlnFplR6/NHK4/wDHc1/JFfXSXFr9kkgXbFF88hOFd2JwcA44+lcfpumaSALhYIhl2JCZidQAOd2ARzz+NRZvZ2MPbNan9vXh7/grr+zBq2I9TnNrIOcNI6Hn2aFR69+1e9+HP+Cg/wCy14l2rb+IYoGk52SSRscY64D5x/wGv4M4NSvdP04QW2p6lDycxG5kKADgHazEYJJGcdqpv8QfElpbpvvjsDupYxxM2FGOu1T296fJLpIPrL7H+iPo/wC0H8E9ejWTSvEdu6PyDh0H57Qv413Vt4w8DasB/Zut2U5PQLcRlvy3Zr/OJ0n4pfE/TfLk03UV4LFElgIJA6gFMNx7HivXNK/bD/aE0iYImrXUaqgKC3vZ8YOe0plA6dP0ppS6jjXu7H+hwljIyeZEC6f3l5H500wgIQ3FfwUaB/wUr/ae8PtGLHVZs43nCwyy5PXLeXGfw/Wva/Dv/BZ79q/Qr2OI6/dKw52XUIlyB6KrPx+I+lUae0P7YDAucGqtxBgcelfyUWX/AAX1+Odhaxz6nZ6bqTZwflFkSv8Ae3yqV65r6H8Df8F6BqwH9vWNnuKjdEs0NyRn3jEfH4H6000tWHtD+kNYQv3uM8imSQYI/Kvxc8M/8FpfhJe/udasEgIUE7Q8fX6GT/Pave/D/wDwVf8A2U9UgWfVNRt9PzhS8t5HGVbr/wAt1i/w96bmnohqd9D9JfIPp/kVBJbguR3HB9q+e/hN+118Dfjhri+FfhrqX2y9mtZrqNhEJIJkhOG2TRs8bOMNkA5AUkjFfS0yNHI0b8lSR+tTcqJhywANgiojGg68VsPHuOarSW4LUFmXJGmOCKpGEZrXktwDwM1H5IHUfpQBiyW+TnFVpLfDdK6PyR1x+lQSRKWoE9jnvJA6j9KglhXdW9JCM1Wkt8nOKCDBeDJ4FR/ZVbluK3vsw71DJbgHgZoAwnskJ9arSWKZro/I/wBk/lUEsIDcjFAHLXFnjhRWabZgp4Ndo8GV4FUDanrik9gOLltXA+6fyrPNq+fun8q7m4t/QVmG3OelTZgf/9L+lEQ56c0vkH0q6kZA+UZp+xvQ1oBUSEAc07yl7mrOxvQ09YSwyVP5UAU/KT1/z+dHlJ6/5/Orvkf7J/KjyP8AZP5UAU/KXtR5K1pR24I5GKf9mWgDLFvnoM0GADrxWqI9nAoMO/k0AZPkrSFQvArW+zLUMsKqaAMpwSeKfHHuGTV8QZG4AkfSoyoDbVp2YFGSEZqMxov3iB2rU8oj74IPuKR18pgAo59e3IwfyBqXsVHc/Ij/AILTfGyH4RfsOav4LspQmqfEe7i8NW+G+ZYG/f3TY67fJQxseg8xQfvCv4tJNFtYrdnjG95VjRDgnbnnOenJzj6V+6//AAW6+Lj/ABR/auj+E+nXAk03wBYLprR7v3a6jfATXbH5sbwjxQnIyjRsDyCB+NNxp8+XKqrr5xjLY4Y8IvAA6HIHqOe9TE4qu55RfaM0E7CF+eGHnLuGCMHkcAelNi8OXAtXn0yIykRuGVUIOCV5x1wegPtXbXOh6jGzQQIrylgsKxKwEhU46ZGfwqaK61LUGlstVtlMzFAijhPlYE85J/pVmL2PFtQ08yOxAwQruHk+4eRgfjzj15rmI9BCpm1KSqELDam0YZyDnPOeTz0xXumq6aJlYwlmbgLHG4OxkA+UZ5P+71rjL6wtb3Tbk2aqvkIglwfLYvuOTtPJbnBxQJHnoWUS2srMxYgHGSf9bkY5HtWXJFK0itDKNgdkcNyGCnoe4x610uo6XH9omFvEitHySd+N4UEHao7VkrYLNGCDHJvwfNLlVAfggbsdwT+NBQh8+y82PT3WNMb8RMUA9uev1rOEvmv9sdmkJiG1y27DAnPP0rW8iKFZDH+7cLtMjHnrjhe46c+9Z0VtEkDwWrBpEDgFsgscDOO1AFfUJnjs2nkjhdsbYxjcQvXHpnJJrHhtreVPNvohPsTJV8R5znCj5cnHXGe9eiQ6db3liptGEkgUFwSpIYAZ+6T7e9YV9otsqeVcu3lSffixglh79u1AHm1xYW6wvKxktZQQF8ksCG68nK8Yx2/GvavgBdzar8Tr221OSS8Eelb42nJl8t1mQMUUk5J3KM9OtebyCJoDGB5ew5Cseg6AZ716Z8E4Liw+LVt5uEe70q9EYH95XgcZ/wC+SaAP3W/YT8dRfCzVdG8ZwSEQ6V4ila5jU5It5mR5kJHBBWYn02mv6zZbfY+05OOhI6+9fxWfs16gX1/xl4enclJG03UIolGcCZJYJMexa3QfUgV/Xl+zR4pu/HfwA8J+KdRJa6m09I7hyc7pYGaF2/FkJrno/HJHTDY9cMaDrxUEkSk8VryWxb5gOKh8hfaug0szMFvnoM1DLBhueK2wm3hahliLNkgn8KAszI8ldhFVTbe1bvkf7J/KjyP9k/lQFmc3JbHPCk/hUf2cjqp/Kun8kDqP0qGS3yeAaAszmJLfLdDTPsrHop/Kum+yqfvcfWl+zAfd5+lAWZzH2Vv7p/KoZLEsckEV1hgA68VC8GTwKAszkZbTyxtqkbY7SMGuyks1c5aqstqEbAGaAsziZbSQg/KfyrP+xy/3T+Vd9JbkjgfpVI2r5+6fyoCzP//T/p3jtiBjFP8AIPpW79mWl+zDsK0AwfIPpUqQgDmtn7N7f5/Kj7N7f5/KgDJ8laUW+egzWr9m9v8AP5VNHBgYoAxfsx9DR9mPoa3fJFHkigDC+zH0NIbfHJGK3vJFMkhBQ56DmmnbUDFNsQMkHFZmp6hY6PCZr+4WBV6hsA/rXkfxs+OGg/CzSEa4YSXkzFIY0G53I6KAK+HY/hl+1L+0pO+takX8OaLI24bnPmuh77etY80pSsgPszxZ+0h8HfCaY1XVrfep+YF1yB+dfPOtft9fCu1me08PO92f4RbpvB/EZrnn/ZH/AGXfg1bLqHxb1db27P8AHcsZWkb0VQeleyeHIPgxp2krqfh/QILexCfu5pYwquP7wBGab51rcDxKy/bU8R+I7wWOgeH7lix+9PE0aY9dxGK9I1H9pDVvCnh678Ua9GmbG3e7dc/KiQKXOT6ZA59M185/Ff8AaY+F/g/zU0x7cyZIIiQKAfSvyW+O/wC2CvxSs774TeHpkJ1ZGiulTkpaKQ0rZXpuA2fVgO4rmlOe72Jk9D86dcbXPiF4tvPGPiiT7VqWtX09/eXEnRpZnaSQ5PZWYgewFcZcaLbGNBbOfklDsEchM7xzhSOgGSfSvoDV9EYWSPZWqqpikRUGVHllmKkZ6krg8Vy03haYkxyIZYljWNJEH3dwyQcdxnP40o1NTjlueBHw/A8kNzMUZpJRnywXdFjG7B3Z25PuBzVS30wfa2uXUwSKXCoyKNoBwPuluCOc5717NdaMthabpPmyrqGxjBHFc7Nox3xgKH8wZLg5OCABx6E8A+vFbRq6kng13ps8sQeDaJjKBI2MAqpyfoeetcReaNcOm6GEhJ7jEaryAnct3x79K97vdCF1JFLNEsrKpLAKuQvOMgqT+orkF0WzyPtEe2FFdlKrnazcAMVyADjjOK0576AeC65ZAR7Gij+dRGm1TuDBjlyGwCSMd84FYaaHAs00cfzxqcb35wAM8Hoo68V7d4g8PfZ9OSCNW83zQ7unCqSBwc9+K5mTTbh40a3nKozspDDcrcBWJYcYwacQPGXtTLc74w2GyrCTktjkqPYYH51XOmPK63kLfZ2UMVQjj5gD17816tLokllBGEuWjhiEjuPMZBucDO4ZwD25Gais9LiQGVYhICBsbeHyD/EMAcE8Z9asDx/Uv+EhtZGvdMj3rDuQsi/IxKrxkcEjuOta9xb3V3piwXaKrkgbyDvLEDofTt9Qa759BtpytxdRoRyY5yoKgnqDz6dDXOjTLIxGCBHVlJZMDbyOgK8ncTn8MUAcLfWV1BZkXIkVFwDnAyQeuf8APSux+HtqLT4veHplDYkjvojuO7G63DDp6gEgegzVa7tiLRo71mb51G4RfIMhiQS3cd66Dws058Z+FtVkxl76SIlVCgBrOZRnHr+tJky2Pvn9n+5/s/4ztaggf2roNzEB3MlpcW8qY9wJZD9M1/Uf/wAE4/HNrrHwbvPAV1cIL7Q9RmaKNmAJtrtUdMDqQHL/AK1/KP8ADKd7H40+EdRJCh7q8sDnj/j8s5gv/j8aY/Cv3z/YS1DRR8TNR8Oa7dmwXUtOaW2k3bB59vKrAEnH8Eh/BT6Vy1ZONRNHRQP3KinMj/Z5x5cgO0qeDx7e9WJbDB4H14rHspJtWtVglK/aoFGGX+IAU7R/F2l3109jfkxzQna2ePxNdMK6krPc6jQ+yEdBn6Ck+zEdQa6fy45MtHyo7j0qN7VzhwpwRkHFUBzn2Y+hpfsrHop/Kt3yD6VNHbkr0oA537EW5I/Sj7CfT9K6b7MfQ0fZj6GgDk5LAlulOjsCF6fpXV/ZM8kUn2XHAFAHJyWBLdKj/s8+9dj9kzyRR9jH+f8A9VAHESaeN3NVpNPGeldzLZjd/n/CoHsl20AcDLZAHIqH7KnqK7KSxBXis86fz0NAH//U/qs+zH0NTRwADkfpWv5IpfIz0FaAZfkA9Afyo8j/AGT+VbUduSvSnmADrxQBheR/sn8qPI/2T+VbnkrR5K0AYXkgdR+lHkr6fpWw8GTwKZ5B9KAMvyAegP5VS1CJ0spSgOSABx3rp47clelSSWIuYHtsYLDijuB8R6R8KdK8S/Ei78a+O2EttpYBt4n+7v5JOD7GvFPjR+1xrGreIf8AhUX7OVul7qcfyXFxjFvbZyPvD5c+1fU/xC8L2niC0vfBr3zWE1xG6u6na2D3FfMvwo/ZlHwQ0meLRm/tGS8dpJ7uT5pOMEc/yrKMrRYnDm0PG9A+DGn+GYJviT8dtU/tbVkAYtLuKRnOdqjOMdfzr4B/al/bftzq0/hjwc7Jbw/IqR8AIM9h0Fdr+3Z8bfiGmrH4a+DNLu3m2Da8kbpECxI3lsY4xX4pW3ww+MXxd8Yf8Km+HVtJqXiG8ctfXuS1vFu4+8MgYx61kpOUrGU5yj7qOc+Jnx81Xxpqsug6TM6SyH95LnOBnHHvkj863fhH8ItZ8K6tqmr6zavDe3MMFuglVvNEcrLMz89N4VMeoOehr+gv9iT/AIIv+B/hPZ2vi/4wsmsa08azTIw/dqxIAHPUY3HPt7V+fvx81/RvEnxo8UaxpEK21g2ryGwjI2qkEJ8mMYHXCIv41daChCxMaUn70j5r1CDzZZJYN2I1dXWT+A9wPTknA9K47W9Ptr2zliMBb5UWOWPBwF9fevab6BI7FXidkd5TuHG859R2+h5rmNQtp9okLymMvHgsy8jJBA+nJNccRzhZHg1xp5kV1LLExYeXuAG0YHOAec1TudHhcmeFXR22qewYowP3eoPPT05r2e5s9LmmkuH3NuPyDIKkKSB09hn6Vyt9pCEyXflrullxGyoflwBySVI/WrM1G54zeaQN0nlImMBS6ewBPHtnmud1LRpYrYoIw4kQI2BhimSRgdzkmvdL/STskZ0bD7MDgkFTx0AwD3zWBqljpKTGTT9xlc7E3dFKfNj6kk4HpVQ3CULI+ebzR4mh3LKXYp+7IGWLJ1yv6A+vHauRudLjiZD9kEcDxkBycNhuc7fXINfReq2sPl+asapIceR6E5+b8K4R4Lpr65e03oDNH9zcrdDu2soPyj+ta81jOzPLdQ061uws3nxTgRqYhwCCRnkd+/5VzJ0S5Z/tUrtNwhYIpHAJPCgYxwOa9el0SaObaZCfPIjATjCouSzE89WwT+FZEumxRh1u9ygInlAkPl+hGD8vb1zTjO7sI8ymsIvIi0yNVMRLsqqBuIBIzgdhjOa4/VNKdY0g80MI2LsI3znbg7ivTvjOe1e73Nrded5E6h4oTzGp45HPPv0wOOK5zVtD0u2skFuIvmBXCqT8rE559uh9K0A8K1DTHLK7+VEm9sSEtnhQejY9T046+9adrDNbal4TuJUYh9cgi3kcYMcy9vw/Ot270pI7uNY0GCGyBnaAMAnn2OT7VBe6HBaW/hvVY5JCh16wO05wGct09jkAU0DPfLO7j03xRoGtAhRYa7pk7E8DZ9pjhb/x2Un6Cv2V+B2rWXhv41eH9U1hT9jW/WCfafm8qbdGQB9WH5V+KvjVPs3hPVby35NpaG7Rh/etCs+f/HRX633l7NY6lLqNgeYpjcRqBnJjbcMe56isMVujTDv3T98/Den6/pyweIvB+oLqlgSD5TN84BPPfPTBrW+Lcc/hjU7XxvFlbRtqzgDAGff0GetdDd/CHVdPEPxJ+EM+211CCK8WyY7laKdBIFA+hq1f3Fh8VfAeqeGr6I218sTRyQNwyHHBUHk8nrSnD2drHd9k1PC/ix9i3WnOLmJ1DEA7s59K9g0nVdO1eL/RG/eDhk7qfTHav5+9B+KPx/8A2ZNev21W1fX/AA/p8zCUDJlSP1wOcAV+nXwF/aV+F3x3ih1TwLcfZ9RCDfbuwBGOSCOuea0jWsiT7dms2iI8zHIzxSxQgLxVfTNXt7/y0uuJCOp6H6VvLESxVgMg8AelaRjf3gM3yRR5IrU8lfT9KQxoOvFU9gMzyRR5IrTESnpz+FHlL0xUAZnkijyRWr5H+yfypPJA6j9KqIGLJb5OcVDJbfL0roPJX0/So5IlxTewHKmDCnNUjCM10stvweKoG2OelQB//9X+t7yAegP5VNHbgjkYrTSEAc0/yVoAzRHs4FBh38mtLyVo8laAMz7MMZpBbqemK1RbM3zDp6U4wBuikUAZHkKPSl+zqa1vsmeSKT7LjgCgChHAAtSeSBznBJAzWjHAAOR+lJPGsUDXDD5VFAH5z/teeGYdOju/GsOpTWt/DEYrLyX+VpW+7uUcnk18R+Ov2nvi3+yN8P8ARPEnxhng1iK9C+cyDa0W7p8p5JxX1n8fbm78d/F/w54AEm23eaa7nGf+WcODz7Zr5p+LvhjTfjP+01pHg3VLdbjSNDha8micbkwuQoYdOSpxmuWpFy0QXa1R6X4M/bg/Zy+KXh+LV/HXh+yura5ZUEkiqJC0gwF9dx7DrX0P8IvA37HXgC8u/FHwm0+LQ73UZPOlDqMFmAycNz0A6ccV+GPxgk+FOj/tu+D/AAVemDR9I87+0bpQwWNvLJCgjIA+lf0l6EPhD430qFdEewvLdkAj8oDdtxx0P61pClNK9w509OpzvxB+MnhPwN4Q1nxaJYZl06znuowp+WSSJCVXGeSzYUAdSQBzX8pcQuHuLi4nihaa6ZjlVIRnyc4z6kE5Ff0F/t6eCPAfw4+Akms6HEba+1TUbayjxJkbUD3MhCnr8sBU49RX4Xz2ypo7suJBD5jnaOpkJKvntx2rLEqV9QPH5CbiaHzFEc6sGYL8x6kYx3574qnJp0lzbKLcMkrNnaVJC8tyfTORx/jXQWMAuZrUQzNJPISWQ5j2AEcFiNvYnBOauR6SLeFb+92xowyFCrkuvc5PI6DPTNc8RPY4iTSoViikdS2QRjBGCqgEYxjg9a4m4soZGiWKIljnAOFBGfavXpbdWlZUQmcwyuFXgZbbkhRkHqefY+lZS6L5EqKy74YUlLkxrubPAA56cZBqyDyG80SG/kitrhDAROd7gjhQAcE9e9Y2paerXW3TcTfOxDnO1dgHc+teyy29utvBGkS7pM7TwM5HbB+b61xq6Ysk1vFdoW3s2WPyIF6jJ6U4gePX/h8PgWcgCkkycgOu7sM9s9K5ObSorVoIY1BbaxA2gsRzyc8/0r3rULC18sxgsypudg3yL8nb3+tZCWENpiawjCwSKGHk/Nkt1PerJnseA/2e+wJFIV3joAMYJIbgfh+VYv8AYMl1HKS2cMAyKhX7vB3Z6gkE8V7rdaO6zSW9wGdDwpxlgDz27Z/WuWOjpFI8jKY2A5Z1I3H0z0zyeOtVDcyUbnj01kqXhMQEMWf3ZU7tzKMgAdcHt+NRzW80Q8iaDALBzk/uzkZPHqcjvXqF3YRM6pNv2Kysw3ZAWMkHgdyD+VYt7afYYTkIyqx2lQAPLJ+Ut7+/pWwpQsj578RW8cExa5t2aIiQMSRnDY+7t7DjNZHiXTp18PaHOIwANd0pmCHcE/fqoBx0Psa9P13Rpp7j7PCzku4wVdQib/vbgeeiiuK8bWdpH4atrpcy41nRyGBxgC8iGCPqTVR3IR2+taat94X1jTG6yabdxgd/mgcf4fnX6W+Ern+3PBmja4Tua+0yzusjnPnwK5P6ivhLTdJivNUNrJgLLuhOfRvlr7W/Z/m/tL4HeCNQcZ/4kemo3/bOFEI+uVwfcVGK3QUj+tv9n26/tn4GeDdTgxIz6NY5xyDshVT+WK7rUPBGjCafWLO3EU7qA+0fe614T+wPqjaz+yb4UklO6bTxdWDn3guJAv8A44V/CvsNLYzl4yO3PtXRFXR30j8e/jVN4c+D/i+fxB4miRtI1I7ZhIAUyc/eB7e9eUad+y58GfiNff8ACxPgZrA8Pa2MShrc/umJ/hKg4x7191ftefBmx+IXw51PRLqAyF1ypA5XaSTX5heEP2Tviz8PvBx+J/7NmtS3F1b5a40y5YssmAMqvv7Vx+y3JnufX+h/ET4ufCi7TQPi9pa6lp+Qq6hZgsQfUgdPX8a+v/B/xJ0vULVHtZvtFs/y5z86fX0HNfmz8Ff21tT8Tat/wrf4xacthq8I2y208ewZH93djNfZHh7VPhzq9y39gTrbXB4aPeAvP40Rm4uxr0PsaIQzwJPbndGRw3Y/jTJLbJzivGvDPiLUfDN2llqrefYzfdYc7SeOvpxXvqxxyRpJFyjD5T611xqXViLGTHBgYoMI3itfyVyRjp14pnkZfpxTewEC2+RwKhlgw3PFbA2oMZxUUiLIc9amIGR5IqGS3BatkxoOvFQSRKTxVPYDFkgAWs8wjNdJJCCtUPJqAP/W/sO8lfb/AD+FKLcHpz/n6Va8kVIi7RiswKX2b2/z+VH2b2/z+VaFFAFRIQoweKf5a+1WdityTS+UvagCr5a+1Hlr7VbFvnoM0GADrxQBV8oGsrXYnTRbp0PASulihXb0qnrNuJNFvIwOTE3FA7M/LqK1a9/aHlnmTfJb6TcGLPX5mwT+WK8+8J6BPp2u+OfiTqce2S4eOztiRghFB3Yz2yea9T8ROnh/9oXR5Jvlj1O0uLTPTnAbFZf7Ql3ZeCPh1crIfLEqSysRwcgBsmgT2Z+Yv7HHwq8D/tHftz+OPE3jqwi1O20OGKzgEwLKrDJbGPrX7MXf7EXwQ+2nU/CkN3osxOQbK4lQDt93p/kV+V3/AAQ/MviLUviB8QpRve/1aXax7qMYr+iA527iuNqA8e2D/St72iZ0tmfgh/wUM8Lal8L5PD/g648Q6jqtjPa3V+0F3Mr+WQVjjIJ55AlX86/KvxTPGh8mNo5EMEYJB2ybiMBQO/TI+tfol/wVD8Sw6l+0je6e37xdG06wsyVyxAcNNIoA43BpSD3Fflx8QtXGj6Pc6nfSvb2OmwNcFcq0hVFZmYAnn5FxjtjNeZOXNOxb2GadcNbSorF4pBFjzn5AwST7dDXZSzRzqJmARtg+ZSFbYcnJYcgZHTGPzr5qn+Iuk6B9pnv4ZLZbMhLnHltFbzKu4xSMpO2SM5WVWwyMpDAEV0dj8aPBl7YfZrPU7YsxAfzJTHIOeRg44BzimoW1RD0PXwXtxJdqVkYIHALYUB/vMxPOB3PSprixvbcfaAySB4QGCD5QSxHHqOnPSuWsfGem3ss8JugkaqI1fd5hYEjI/wB0da7G3vdNuRcSWNw6BpFV3yCrLuPG3sOAc+9FmBgy2Ee5IW2rNbIrx5OAVLDp+ZrJezgt/wCPeoQE44GRx95cnsOOldS0kcdrLFbbF3RxADuDhcjJ9ScfXioljsy0txHEbdZUSNTvAyTyeD7YP0pAeYXmkRKkpW2DNIQzLjJZRzgsOnqM4JrCuYzb7ZJMyMF6jBAXPGcdCOmDXo+p2cAkaMI3ntjIY5BXs24cDOOB+NcXcpZyXK2M7O7Sfus9VCN15HpgY9zQByd0I4ruIjZGWDcyxsTk9eemBgY96x5rNLy0xEJFYZ2yMh+8fmIxj3/Kuuummk85U3CVEZXCr8yjAx1747dayLmK3gtI/tL5V1JDFwpYkAbWU8546047geT3FiybmlQeZG4DsD174x6kdqy9St/OhSSIhpnwIy3yjbnpjcM4r0a+VEnLRQIen3e2VIH1IwcmuPvUmjt1kbcI22su9CuDtAwCR7Z/Gtobkz2PONZtrZYZLaUv5vmrtypDEADsSSRyea8w8d2qxeAz5+0MuraSqDvtW/h+b6e9eyXbWkkEskbBnjfdtB3E7uMZ9eOleT/Etpf+EB2QFokbVNLl4XcCn2yEZ3fWtkY9Ge7+GLBJNUiMnG2T5j2+8MmvpX9l8T/8M9+GRKCGgt7qDYRgg211PGOP+AYr5102N4r5mBwHkI/XmvrH9nuyFp8KbGzP/LK51ZPpnULk/wBaMT0IpH9JH/BMq/e//Z91PRA4P9n+ILpVwc4WSGCQfmWb8jX6NRcOy46kc+9flt/wShnmufBvjnRkUt9n1OzuFAGSRLCyEj2HljJr9TnIt7c3EzLHGDyWOOep61cHeGjO2Gx+cn7T3xJ8V2vic6VYSKkEbbXQdGU+pr5Wsvip49+Gl3De+GLqKGJn3eQrqysP4iR7jivpz426h4d1vxZdi1WKYCTG8/MPwI4xXgN5pulqjOYYm5wOMADv1rmkp33KPo3xt+zl8Bv20/h3ZeMdWtVttSUB1vLUiK4im9Mr3zzzX5MfET9kD9rP4EfEJf8AhEvEtzqGjXYIt7x/3jQspOBIBn256flX6m/s8+PtM8D63e6Jf3Ag0q+UGMHhY5V9zwM8V95xjQ/EdqsiSQ3tu3I6PjjPat4OLVnuGvQ/n48Jftc/HT9nm8tvDP7U2mI2mXPywa3bKZLcg/8APYYwh68kgciv1n+HfxV07xTotr4m8HXS6lpk6q+wNxg/3efyrl/2j/hF4Y8R6XP4f1i0jubC/iYfvFG1ev3c9/pX5ifs/eGvEPwp8Q33gbwjcy21zpUu9baQsYriEnIxn+LtgdhWM48ruFpdT9+NJvbTV7NbyzbKt/Ceq+xrUMOOtfFPwu+J4vbZdZ0wmO6iyt3aE524POB1zX2po2qWGu6ZFqlmfkkHI7qfQ+hraE7qwEUluC1OjhVRjitGWFd1R+StUBnyQKxzUfkKPStPyl7mo3hBPy80AZrwrtxVE2xz0Nbnk460eSKAP//X/st8lfT9KPJX0/SrmGow1Zjsyp5APQH8qPI/2T+VX04HNOytAWZneR/sn8qmjtwRyMVcHPSlw1AWZWEezgUGHfyasHg4NBIHWgaK4j2cCpBbpPG8UhxvGOakyD0piozTqxPyrzQUfmZ+0x4Zu7a9sfEOlo32rSr1JE2gk7M4YfiD+lfLH/BRnxPeaR8E9V1ezBJFi+wAc5YKP5Gv1s+K/hW3u5Y52jDxzsARjuCTX5Mf8FFxFbfCi9NyF8lRHE+fuiOSRVOewpMip8LPLv8Agg94dnsfgjqmoyI2Zr6XLEHBxszX9AEQAkG8AoCc+pHoPzr87f8Agm58Eofgf8GZPC9o3mqbiaRD/EVlw2D7jOK/R6GKMzRlyMZCn2zXS2Z0vgR/KD+2bqcd9+07401e5YTPFqdxaGNtxyYmxnA4+X7p9CMV+dHxivm0r4XeKZ7kjf8A2XeRkx/JhJInTk85+YqABznNfUnxQ16Lxz8Q9e8YzSsZdW1K5u4pYgr7/tDs+ASeex/Gvhv9rvUrnT/gPr6uJPOAtYjHJtBYXN1BH1XgHLkY615b+Io/oW/ZM8US3n/BBL4ufES8uPP/AOEik+ImpL5ynbi41W7ijxuGMbAiqWGAMc4Ir+IvRfGWoT6c2tfaIReGeaC6WNIxGxjYquEjTY3yBTycHrnmv7ALa7Pgf/g131K0sZfKn1PwvOg8s5YyajrDuwGOp+Yggc8e1fxDxSnTLARRS43l5Tg8bmwPzOK9DBJPmujLHt8y5T2e58V+LtNvPP06M7Y1Bk8hjCMk9dkbbBwRztP1rUtvjv4v0YSTWOpahbCMEOjS7lMnpgqh447H6180x+IZZbqWK7d1SdQgcHkFSvajxBrV06/Y3dZQZSdw64rtcIW+E4o1Zxd2fTHhb9t3416HqUWmeItQlm0+4lENxLbHbMkL5BKArtZgOcFh0r9nbj4J/wDBQXSf2Pbv9vHRNL8P+KPhxBaT31/Kmoiw1O2W2mNvKksUoZXxMGAWJsdgM5r+aO+tB/aNn5K78FmIJxk7Gx+uPzr+2b9onxtq3wg/4NaFsUXyLzxTerpIXPLrqHiCa4OO5zDGx46qc9K82pGPNodlD3oNn88vhb/go/4Z1y9tbLV9Gn08TyRKCz7Ii5DdGkZVTqB82ORX0U37S3h7S5Y4fF1hqOjxmEzpJc2d0YZEA/1izhTA6gdWV8AV+AfiC2mhiFnblZQWLhMKwITPXcB+GDnNf6G/7QXju/8AgP8A8GvPm2Ooypey+BNG0qKYsUfztVu40cAZ4dUZge4A56UV6fI0u5VL34t9j+djRvjl8LfFSeRpGvWEs78t5FygY98lVJPTHJ5rpU8V2GqWjRWM8dxhXQFJQ2QQMEZOcg56V/N+13PcMrTAuWAG6XDOoHbnGfrurfsLs21xHdWLyWrbiFMLuhC492OOc9OK1ng7WaOaNZ6xP6ArjU7KWVElLKVMZRJFJYj7pY4/hzn9a4XV5JLSR5LcbXd2RiuWAAOBhfpg/jX5B6J8W/GulxLbJ4n1e0UcDMi3KcdMo+B+tbjftV/FvwjA9zrNxbavbyMqhZYRFNgkDgIcZx+NR7CUdWVz30P1Gv8A7OGgjZmTcpdXTJYsvADKBx1PWvMPH1hMPAk8b52R3+nKQoGSfttvzgfUV6QbKKRNk0DrG8MbkNkOrMqkqB1yCefeuF+IkajwrbIUdAuo6Vt25PBvrcgv6Z96QdD6M0a2SXUlL4KZbH5mvrL4I2pg8BhZPl/4mWqkZ44N7OR+hzXyfbsLW++X72Xzjpye3tX2B8KCT4HDHve33/pTJRinoRSPbPDd7qml+JdOutHvp7RxdW5It3dC5EqhQ204IGW4PrX9AXx61bWL/XrlJp5FtYZXRY0OwADpk1/Pz4bGfE2kr/fvLZfzlSv6J/jHp5m1TVIoQGUTyc+4Nc1JPl0O6mfB9yZUZlyeCeG6isGSy865+1sTvVdvXjHXp681097FPPM8ko2NnBFZhspwh61lKnUbNHsYbSMoIyXOeh+UVb0f4h+KPAuqwatot48CxyR+ZGzbkZXbB4pZbBypZjiuG8XR/ZNEluMhgpUnB5G1lNONOSabIP2X8XaBF4t8LPEsY8+aESp3IbaCfpmvzW8X6HpeleNY7+6QW8eoYgeccFJQPkyewJzX6Z+A9dsNd8M2d/aOr7oYuhBzwM4/CvkX9o3wLDd3Wp6VGm2C8UTQj7rITkEg+oIruq7AfNvijQtb0+VfF/h3EWqWJC3sCnCSKOQQO+4HPvX0T8MPi40cdt4l0IiRCwW7td27aTgHjsRXm/gMat4v+Fum+PSol1DS/M03WIAM5WJiEcj1CFSSa+a9T1bVPg38VYL2EO+g6u/3ADhWbofbPb1rnTa1A/cfTpLPU7KO/sJBLFKu8MpyOfcenSrf2dRj3r5I+C3xFh0HUl8OajLu03UObWVjwrnkjPTH9a+xGVbj97GOv5fhXTCd1YDMeAZ4GfpUTRFTgA1qmMpxionDZqgMl43J4U/lTPLk/un8q1cEdaKAP//Q/tBwT0ow1SorAdKfhqzujQr+Xu5NHkirGGow1F0BGi7Rin0uGow1F0BWkB8wH2pxQPg+1WPL3cmk2beBRdAV9hXgU5FbOcVNhqkQELk0XQGH4k0Ua1pcsA4kXDIfcdvxr8K/+CrumatqP7O/iW18OgG/+zl7eNuMyxspwfc44HrX77opZlU9Cy1+RH7enga58X+DtT8P2vySXJeMMezl1K/1P0ouhPY7T9j34wRX/g3RdU1gGGLUbSKK6ib5WguUUBgQenPrX3L8TPEK+G/hl4k8VZGNM0e9vt6ngNbQSSjnp0XNflf4csL3wnoFh4htod9q1tH9vtUHIlCgO6457AmvZ/jV8bBp/wCxj48vVU3MUnhy9gsrhDu/4+V+z7Wx/wBdSAfXimmiD+bnRpks1tXuX8lPLVVDDgkIPyNfFX7bMlpP8HH07e0kd/rmiWznptJ1CBiue+AAfxr6mkeWxto0uFyEAPB3ZJ7+3p+FfHH7Xl3Fc+H/AApGyfZYz4v0V7qeQARxQRSPI8khP3YwVXLnCjPWuSG5FR2iz9Kv2svEq/D3/g2m+FmhedJaSeIX06BY1OXkLyXFyQe/VBkdq/kY1O+C6Qn2aP5kBBK/Nkx1+2v7Zv7QK/ED/gnV8KP2cfCt1JrM3hC4mnv47VvPVgu9Itqrk8ByeO1fhDNeS2Ua2WqxNbNvYMpUpj6hu9ehhP4dvNnLXk3P5IpC/a2YGUbhIuV9iabZTXV1qtvaOCxd+3PFZst1EyokILBRj9TXW+EhBf67axR/6xcsfUCumWxg07G7Pp7HxtpdrnEck8MZPb5pY1P5hjX9bv8AwVn8YWOn/wDBAj9njwTaBopPFeraFeqg6kQ2txcPx35kGfqPWv5KpDcT+NrC0twNxmUiQngFGMg/VK/oD/4K+fEzw54l/Yz/AGM/h14e1AXMul+HZbi9to3DCFo7W3gHmKPutwxXOD1riqK9SNjpov8AdNH85ms2C3/iiz0dOVlmwFJ253PsHPrk4x61/bp/wWb8Q2/hD/g30+D3gW1uBnxBeeFEZVP+st47WW8YD+8MhTkZ4r+LWxjNz8UNLhZAzfaIW2jknM8fIHp8oJ96/pf/AOC4/jy/tv8Agnl+xx8Hd7LK/hmHVbuN+Dvg0y1hQEHoQZXH4H0q6/8AFRVDSjO5/K1PpzlztPyjGD9Bz+uavx2wjQKTmui+x84fhvT6/wCPWpP7Pb0NbzZyL4UcxLaB4yfUgD86b400p9SbS9BiDeZd3sEYA9SRxjrk12NtojXLqQeAw4rY0zTBrPxz8F6Ig3CTWbYkDnIVhn8qyexUT9cPE0mnjXbxInkWUSyRxJFwvyAYOD1JK1xfxJtZV8P6fbSqZWuNW0aPJbJK/bIeeO3Bra1Avc6pLdTM6C6mJUYwq/eyT+eKr+PLe3bT/D1ta7Uzrmkg477biI4579a5X8RaPXbHEmobIl53MAAd2RnA/MV9n/CnjwQFPUXt9x/28yV8f+GzENSjmYY5UnPavsD4VuZ/CjsoPGoagP8AyalpYnZBSPe/A1o97448PWSKWabVLJAAMkkzx4AHcmv6LP2n9V0H4Wx654r8Qv5OnWxeZ3C5ZlyfunpX8/8A8D7eW9+OPgSwgXLy+ItKX2wbqOv3J/4KnaQ1x+zJr+rW3PyKrnP92Q4x65FZQWmp2x2PycuP2ptS8U27a54G+HniDU9Olc+TPFGuyQeuXGfy4rHf9on4lbcf8Kk8Rce0Ve26x+0l8Kfhx4M8P+FGuH877HbKkVtEu0syDgfMMtkHoK8pP7cvwPmu7rT4byV7iyTzLmIGMvCv9518zKj3IAq+WP8AMwbRx8/7Q3xXaT9x8JPEWzHpH1/76FeefED9ra48KWCWfxL8B6x4ctb35BPcYxn04yP1zXtcv7Z/wjbyZN14VuMeUQiEPnJG07jnIGeK+Yv2nvjr8Kfjt8NdX8F+GZ2fVtKHntG6qZIWHQMFyVzg4zg0WXRkOVlc8v8AAH/BQP44fA3xDJBpV/8A2rpDz5WGU4xG2MYPqBxj2r9/dA+LT/Gv4Z6D46kh8vzozHJ3++ARz7Gv5DNajWeC3lXkOqHPYnAziv6gv2Sj9o/ZY02QcmHyce+a6Iq8X6GdCd7o6n9lbxPaaD+0f4r+DOsNmx8QW639uj8AFPllxn6DNWPjf4KaysLrTbuDzLjSLhnXjkxKcjA/3TxXy5rviuTwR+3R8P8AUrZv3d9dzafNtPJWZcgfmK/U39ofRrdtZi1NVHk31s8b+u9QefyIrOm+aCfY6T5l0a3B0CyksJPMsL9RNpkynOJB95CR3BB4619t/Bf4j2vjHTBpuoEpewDa+eORx+tfAf7LGoR+MPCvir4PStnUfDFyuo2RP3hHg5VR1OcGu00zxWfAni3T/GEBK2c+3z1HQZ459MHrVoD9PWjdMK3JxUDq2c4qfSb6z1jT4tStnDJKgfOc8Hv9KvyRJgjIqwMTap5JAo8tPUf5/Gp5IMtkc1F5IoA//9H+1CinbG9DRsb0NcZoNpQpPQZpdjehqzCCF545oArbG9DRsb0NXqKAKOxvQ0bG9DV/BPSkwR1oAo7G9DQyN5eMHrV6igCIKwi3AcgivkP9onwImvpdWQGDdRlw3oQD096+xkIxivMPitp0dxpNvqBHNvIS3urDGKAPyA8H6l4s8GaOieMLYPpzXDW0d8Pm8tuMJIOi57Z65rxf9sC21fwr+zd4t1Dw5NBJ4b1qG3hvbaTPmQvJcxgNEenzEAbR3+tfq74OstA0jV7vwZ4wtkm8PeJd0cgcArHNgcOOo3DG0j7pFflT/wAFOvhn8QPgJ8DtY0KESXvhnVruyhtb5WGYpFmEiwzDscKNrfxDp0NBM9j8NbPWJhp0IkYO6qFIzzu9x24x+Nc1fzTTgT25d4AuGVThmDdPQkA5/ix7ViW2pRTI0lsSzRop6cYJBJz3+vpVF9Qe0gks4ywkEaNhuD74rJr3jE4LxR8NfAOuTO+s6LYyuFBZ1to8jOfvMAG3Z77q8p1H9mj4c6gj21hb31mpG9447yZUB7nZK7xDjHG0177dXiyus6zrGrLmQnBz6dVPeqUd/CudqqryhVLBwd24nJxgdsV0xbS0Jkk1Y+KvFH7EnhS8iA0vVzC27J+0adbXC59CYUtpD9d5+tebWn7F3xJ8M38us+HrzQ7mNkwhP2u3cAk84czhfwbHt3P6M3t9Esk05kLzJ8ip0JHTgVktcW/lFJMMiLnJyWDdSCB/CKr2kurM/Zo/OeD9m74geDvE9l4w1jShrcWnv5kiafqEG5ldJIzjzxD/AHyRwRkdc8Dov2pPiHrHj7xP4M1q78H+ItFsPB/hxNC827sxdQkxZAcS2hlXLKy5yQc5yOlfdlzqCJbuyusgCKSIyFGSTkEH25rMvL1PPjSzLglcgtnftJGBnpwQeOtHtmtUHskfj18M7LSNT+LFjrT6vY2MEEsUTG4vYreRcu5ZjFKwdsfLkYyK/Qv/AIKP/GzXP2jfEnwo0O1kivNI8DeCrfSYLmH95DJcIESQkrkKxC/dPPGa9j1fTfC2tRNFrdrb6t5MjD9/DHKrSE8j96GB4I6H8K8k1P4EfCS7kkdfDtpYXDNu86w3WxQcE8weWo/WrjJX5mRJ390/N+Tw/sfzoV2pjjgjheMnP0q3DpFyzbCDx146V9pah8B9G3SroGralbMH3Kly8dyoGBnO6MtgjoC9ZC/BO+tICLrV7ed0B2l7UKcdcMvm9s/ex/KtVUi9ERyJanytBpyWtyFyMgbj7Ck+FFs2oftKeGcFfLt3uLhi3QeVGWGPfivd734Y/EC0Eoht9Ouo2XKm2u3hcg+0qBM+wesn4S/DTxF4Z+KsXjHXoXtPs9lcxIJxGU3TKVB8yF5CT9cfT1begH1ZbX9lGqrZBJWTlGXIBBOeh6nNN8ST3F5qnhNbwsDJ4h0/gjaMIWc/ltrCWQALbu0hUEpx/eU44H3sEYPPrVmaJ5PFng6wzuH9sGYcHI8u1nYZz/u1zL4gPp+A+XOsrAJkY/LFfWnwOnNx8P4rp+PNvtSb/wAnJh/Svk0lmZLfjGSffJzj88DH1r6Z/Z0lFx8GtGvef38moS8/7V9cEfgRyKvFFR3Pu/8AZct/tv7UHw5tQMg+IrB+P+mcnmf+y1/RN+2B8LNU+Nv7Ofib4c+HmDX9zbNLaqQDvki+YKpPAZugz1r8CP2G9Oi1f9rvwFBkMYb6a545/wCPe2mk/TFf1C2mBIMnaEIOevOBWcNjsgrqx/D/APtR+Bda8GeD9I+IfxS8Gao+ueEoTqttpO0RXclxB+7+QD7xIGRkYr4S8J+DPhnqWrp8bv8AhBtag1L4txTWWtx3U2DYQsCpMsZIwJMAZAG3HvX9037c/wCzZc/tKfA/WPCfgoWdn4pkRW0/UZYRuiKsCyhu24evFfy4eOf+CUP/AAUQsr2SCLUbi4CuWV7eVVDAnrgjr9OKswqU7bH5z6yvhDwvoj6Za+ANUuYvhNJBd6GI5w/25pE2sLfBJygOGDZ6VL8L/CnhePw94i+NXhDRbjw/4j8fWyPd2moyFmglY8nYfukZ5GB0r7Z0f/glR+37FetJqrX9xG3zOsk6AEeleu2n/BNT9riK3W3Tw/uYDgPMMketKSdjOMG9LH5uX9ncwafb6faxtcTRLtxEhJZlGCQOpz1r+kr9jzVr+x/Zl0qy1S3kt5WVWKSqUbC4JODzgV8VfBT9g79pv4a/E6y8ZeO/D9tFo8Css7SSBuPQA96+5fjr8YvDvhzTV0jSES0WCARqFIACLksTjpjv6UOr7ONzaELO58X+K9bufGn7b/w60rTzuaHVzdHbzlEBGeO3vX71/tH3FtY+H9PkcZcJI4HttGT+dfhN/wAE5/Cp+Nn7Yd/8W9TcppvhS3YiQjKq0xIXPYdMj61+gX7Xfx8tbya7jsTkQRPFEEORtX7zHHT3pJpU2XT2Z8mfsZ/Eh4v+CiV74Xik/wBH1TSJPNTPBKOSCfwzX3p8cPBzaJqOveHmwiJOZYB/djm+ZfyJr83v+CU/w81z4n/tS+Jfj/eRldO0yD7HCzKcMznkKehxkdK/Yz9qaxjttTXUJQMz2Pzn1MZbB/p+FVL+HEdPZjv2LfiXd+Ofh9J4c1M7r7Sma2kz975TkZHXkHivtIxqUzX43/sS+KrvQ/2kNb8Fq4EGpWy3KjPRl6n8sV+zTopckdO3+frTWxZlMmxSBVI9TW3JEm3ORVAxJntSA//S/tgopcNRhq4zQME9KMNUiAgc0+gCDDUYap6XBPSgdmRoCBzSOCTxUmCOtFArEGGow1T0UARKDupmo6fa6rp0+m3wBhuECH1B7H8KsUUAfD/iG2h0nX7v4ceKH8x1QzxoDtM9sDgOjd2Rg27HbGa/Pn/grT4/vU/Yc/4QXWw9wZPEWkC1uwMiaJFnk2sez4U++Bmv2U+KXwh0j4qabBIsz6frOmF5NPv4vvwyuAB9V4+ZTwQa/nn/AOCu3i/xHpf7KsPw78cRfZfEen+J9PaSKNCsFxGsF2DNCSOVb+LGcNkUCex/P3pj2tvGI4lLOqOoXd9wDA2t9McZrHudVSCbzIHwsbY5c8jA9PfNc22sJMAY3Xa2SGH3tpJ79Ky31IXMv2WTODwGJByBz1FOzOKb1OjlvpzAWkRt5xsDZPUng5FQDUGEryyAKGbAJ4HmY6LXGT6xKXN1OzHZxtH+zyP50RapPDcA26somXCSZX5WPOcHnj1xiizJOra/FzD9mLlUYl95YYLdCAOvasW61H7KUYStIZOACwbIHUDHr6dai1C+lm2XJlbKkYH3vY/TkZxWHfXrfaN4fzE2hRgjaevQdz16UWYpOyuWbzWFtw8Vy20nA2AnkZznGcd8dO1ZNxqTLKBBGZk3cAEJ2HcACuea/uGl32wHOcFQpfHurHP44xVSb7pnchQeOcb93r8uQBVQTuZ+08jto9XWSM2jFjtfeQWDkZAGMr9Kr3V/bL5rxFvM4Ugqdwz1rhReP50aSYD9CX5JUdDx2q1LdCYMkmI1dtxYAjnp3+lahz30Nu61FZxK8jMwcAfN8wXHGcL07UjXXmymBWXaqty5GW4H3fb+tc+0zwQsYhl2UqB6jI5/n+VOaVEVpUBdsFeOcHcT/WgZeyJZHXoowfpwKgnaJh5DZLOCB6ADvWQ025POO4YTaQO5qu+oJFA0zKysiAANweSfWgBFuJiynehZA0hwRnHTP0rT8MzrdfEbwjBI3zi4vpSp6jyrSUdP+Bj865KUJeSG2iIULHyzcqc8445zx+tdh4CjS7+MujXDA7bWy1CT2G5IUz7DL4571UdyZbH1LGwNzDuGGyh/Jl/wr6U/Z/jNl8C/CkbH/W6dHcD/ALeMy/8As9fLF9M0UMtwTtMMTSknjAVGJz6YxX2F8NLMad8KfCmngY8jQ9NT8fs0ef14qMSzWGyP0l/4Jo2rap+2VoW0Fvsem6rc8c4P2dov/amK/pnk8tJWVSDz61/Mx/wTS8a+B/h3+0jfeL/H90lnaW+g3UccjKXJklmgXaAOc7dx+gPoa/YHxN/wUQ/Z38Nqz2t3JcsFyrDaitjjuc9qiErK51xeh9yr8/K8/SoXAc5ClscZBHX05r8dvGv/AAVm8M20Mi+EbFDJ0VpC0rZ9sDbj2r4v8d/8FLPj18Q3HhXww03m3RwttaR5lf02xxguT74q1VXUpSsf0L+MviH4D8DxGbxTqEVsenlMyu5x/sA7q+I/ip/wUG+Gng+3Nt4dg+0uOhnwE787etfjTq/hn4867bjW/jV4j074f2kvzh/ENwEuG3cfJZQb7l3PvGM9O1RWnwf8G6haSDwdZ6v4umIw+sa0v9gaTF/tRx/NdT5/4DkY+UYJKcpPZ2QpSbVj0348/t/+LvG/+jNcIkCHCIBtVcc8L1brX5x61rfxd/aC8QyeFvh7Zz6nLOAZXXKxpgnBlk+6kfqCQa+rp/g18JdJjLfEO8XV7jaAllpSG0tIyCeC+8yyZ9SwJ6beMluufG7SPBGlQ+EvCsdvpFixO2xso9srNjGSQN2SABlz261zy5G97szXN1Pf/hNd6b+yf8HV+GumXEVxrmo4udTmgxiSXptUjOUUKAO3Wvjvxp4p8a/HDxhF8OvBqyXuoavKIU2AnJZxkcfwqMkt07dqb4N0T4xftC+K18IeANPknku2y0cH3VB43TyDIUD6jNf0S/sh/sK+BP2c9Mi8Tayo1LxbPCBPcyAMsLH+CIdlHr7mnBc7uy0d3+y5+zZ4X/Zl+F1h4A8Porz4M15cfxTytjcR9CMD2FfPv7V/jiwl1WTSbZwwto/s5yf7xJP4c4/CvpL48/HzQfhxpFxpthcJNqrDaArDbBnqSfX2r8T/AIt/FK6u/PvJpv3twQ8QY8tknLt6AngfSta89VFFHpn7Gk1x4g/a+e8tT8kFnOrEcgqu2v6AZoA2WQcHpX5gf8E3/wBnLU/Bujz/ABn8WwmK91mPbaRyAgiBiSWOfU5/DFfqc4ZU2vjPXj35pw2AwTb/ACnjvVM2xrcIIU59apnqasdmf//T/tooopcE9K4zSwlLgnpRhqkQEDmguG5FgjrUqdKRwSeKVAQOaDUa/Wm4J6U9wSeKVAQOaCZ7EeGow1T0UGJBhqMNVjBPSjDUARxbQ+yTIDDgjsRX4Qf8HDNtpn/DGXhzV5rdBcv4stofMUYkYNaXbYLenyZxX7x4avwa/wCDiTj9iPwuT/0O1p/6Q31VDcir8LP434by3s5TDk7FO0kHKgfXpWgLiOMs0OSOg9veuLMpSOVI+XO3APpgVYmuJI5CEON2M5/z0rY8uPU2ZZGUb027xyzMDyPr0pbl5ZP3M0pAbaVJYErg8jjoKwTdSFHhbkcYPrSy3IlZ2zyDgD6AUFnUS3ZkkkfkqHQw7emehzWVPczz2z2qACYMyhx90OMkYP41zT3k4BAYqTwB0Gaks7iSdi8hw8YIx2OAfm/UCgDDXxNP59xczmNUjnu4lRgCu2FjHn72edvpiq02vRXwRBEc7RwroR/48FI69MfjXhWt6/q2Liz0ebEenS3t1cHyw5ErXMoQMT0UjB545plxrHiawg235tpnOAFdCkm903kDyyTjJUD5e49RW32QPoC31C3fEk0Trj5Q3GPzXj+tPnkjdSQHK56YPWvO/BfiVtVtNQhkga2NobZkmidWRkkd+RgDI4PJ5rqp7nduW5kdJFJP7zgnnjj3HNQ9gLv2vEJmcsu07QzcDjtk1Fc3s3y3MxMfGAB3HrVAXYUb4gV4ySwyPy/rWcb1CCzDdz25/GpsxPY3DcmUDYxKp8xX+Jt3HA9sVHLdRwp5SuWC/K2WYH1B4HTnFZcl0+xYJP8AVPyE6En61HI6mP7Kr+Wh5O8blGPp3pomJGLht5kkLc8nBJx7HPSvVPgsn2v4mSlgR9n0eZxu9JJ4Fz9OK8ihmmuLg7yzDbjkY556D0r2v9nq3kufH2u3LZbydItoh9ZJnfH1/dU2OWx7V46nNj4U1i66N9iuQB6/u3H88fnX6DWtnHpWl22joRiyhS3H0iG0foK/Oj4n2l5d6G9tGCqy+XEeOvnyKpH61+gPiO+MOpzzRH5DK2PfB/wrmxW6NY7Hd+FPhzqvxDup4NNnvLc2SCVjZ2Mt67byQARG0YTOPvPIBXRn9mTxyjGZrS6ijz9/UbuysgPrsku5P5H+Z+a9W+L194aWO10SPWJ5rhtjrpMTScjlVkZT8uecA9ccVQtPE/x38UyC38NeAfEmoiU5VrpnIyeeVXccVEdirM+rbb4G+G9Bm3eK/FujWG4Z2WcMupT/AJytHH/5D/Guw8PeIPhJ8PfOtPDupa9qckn+sSGf+zoZCePmS0SMnp/eJ/DFfPfh79mj9urxntXTvAo0eNuQ9xDsx7lrjav617l4Z/4Jz/tCazMsvxK8a6NoUQ5fzdTjcr7CO13H8M0+W+hUIyvoUb/4xeHPCdx/bHh3RtL0C4PW5dVNwR/vyF3Y+55rzPxD8f8AxHr7STLNd6oW/jdjHEB75P8AhX3F4X/YR/ZI8EXK6j8VviZc6u45aLSbPyyfbzZ2LYznnpX0PoHjj/gn18FIzJ4J8Bw63dDpc6xKLtyfXYPlA4z165ocOXWTNeWXU/Kr4efC39of476gmneBdNu75JTt/wBDQrEpHPzzEEDqO9frN8Af+CQfyJ4n/aB1Jg2d8mm2UhJIwOJJuSe+QvH51b1n/go94pithpHw40az0e2C7VWzgEeF9s5P5cV8s+Of2wfiNrQc+JPExsYSeQ9wV4/3F/nUc0F0CMUnc/cmw1f9mT9mPw2vh/wyljpcEeVaCzAaZiAOWdcnJxjnB4r4g+Lf7d3iDW2m0rwIf7PtBld0Z3yOvPLMfu/TtX44az8dTrFw8WkR3GtyMflkmdooST6bvvV778Jv2WP2o/2gbiKa1sJtO0xiM3FwrW1tGDjOCQGlOD/DkGl78tFsaGR4z+MFzqN4ZluWv7tiQ8qtuVWPTDchnz2FfcH7Gn7FHiXx3rNp8XfjhDNFp0R862srgZe7bgguv8CjPAI65r7i/Z9/YE+DnwYEWra7H/wketx7W+0XUeIY2GD+6X0BzjdzzX3XJl3L7duccAAdOO3FUopeo7Mzre2gtbeO2tECRooVVVdoAHQAdsUrhs1cwR1qNwSeK0huNGbMrY6VnkNk1tyg7cVnGOTJ+U/lW10Uf//U/tpw1SICBzT6K4zpnsFFFFBMNwooooNQooooJnsFFFLgnpQZWZInSn0xAQOafQVBahX4G/8ABxjL5X7EHhctwP8AhNrMZPTJsb4Cv3yr8ov+CyH7KXxs/a8/ZP0/wH8A7OHUtb0bxHa6xLaS3qWJktYre5ikKSSkJlfNBIJyaaCuv3cj+CB7ryy0bYBGM54IyBVZnZXJySGXIJrXk0e9lM62toz+RC9zMsK+YIYUG53crkbUzgueMc5xXNwXNje2UWoafdRXNvKuYnicOjr6qQcHr2rpjseKk+VFuW6fy4ljG4g8gckU5pkSZSrDrk81mpcMZC8S8rwfajekluxcZG8ZK8nJ6D8ab2EXftcYmMhG9d3bmqsV6kdy7ySmJBufAHUDHH41VkZEh84/Lt4Hpx6+9Y73n2iZFdd4yR8v8Pv7/SlFDic8/hXQ9d0RJNZtf3l01yss6h0LgzyMgJUgYwQa5zWvBEF2LmWzu7q187y97rI0io0RGMbslshQCpwuPqa7e21i/wBPU28dzJFgkjaTz/wHB5qJ9ckdxcSxpM7cEyDefzxkfTNXZlkmh6fHo2kSxTEHcYOQuBI6gr0HAGADgcZz3Jqo1yFQZw24Dcc7jnpV661lri3W0iWLgl8jdkbegG4mubnuS0jEBgFOMsQeevH50WYnsStPJbrndlXPftVczwSfNISqoei9SKpXcxKBR1NU90hIQgr7ngUWZB0w1CAqC7DaPu5PP0+tPFwruHRgGI5QmsEPDDIAACxHfp9auC6VY/LQjHfjv9aLMDUkBDbo8xtjnPFfSH7K1uJ9Y8R3chwwSyjP0X7QT/6FXyukqgMqfxY75r6j/Zjvo7KTxDJKQGeWBQD7K/8AjSsOJ9daj4Y/tK1tU2j59T0qEbuhMt9bx4Hv8xr681/wg91GbpF3d22jODgZ/Kvm7SNZivL3w5p8RR1n8TaQp5B4jnE//tLP0FffUBRygkVQCX3Z6FSSP6Vx1zsg1bU8a+A/7RnxJ/Zqtte8N+E5ha/2zcrcNM9x5O0IoAwCR1/vY5/CvTZv2yfj94x3LN4gt8sAu1JpJioAA6kH9Divsn4Nf8Er/hj+2H4RT4yeMPEN9ossEz6ctrZwxurpDh95ZzkEmQqRj+Gvp/Qv+CHf7LNltj1LXvEN4q8lRLBCp/ER5pR2L5ZP4dj8Uta+L3j++fytW8TnzG6+W0aED0y7jFZ51yfUIxLqmvQumOTdX8bH/vm28x/0r+h3Qf8AgkR+xbokivJpWqX2w/8ALa/YKfqEVM/X9a938O/sA/sb+FXSay8BadMU5Bu2luOfo7k/piiUboqMJtn8ryeJNBST7NY3SX0h6Ja2s0+T9Zvs/wDI/wBK9C0H4ZftF+OAf+Fe+EtclRh8skdkcE+gAjx6fxn61/XF4d+Fnwt8IFR4O8NaVph7Na2iJj/x3+fNd+xMX7tSqAd1AP8AQfpxSjTVy/ZPqz+U7wd/wTI/bJ+JkizeKbWbR4nHI1G8FsoX3ijJYn8vpX3r8Jv+CM3gHw+I774neIXupm+/DpkflD8ZXBc/yr9rzjJxg+4BH86K0cLaj9mfP3wt/ZT+APwdCDwV4ctUuUXH2yeMTzk/78hP6DFe/oW2hCSQnAz0A9hgAD6U6ipGoW1CilCk9Bml2N6GgZA/WmVcEWfvD9KXyV9P0oAznBJ4pmGq7Km1sAVFhqAP/9X+3CiiiuM3huFFFFBc9gooooIhuFFFFBqLgnpUiAgc0iEAc0/K0ALRSZWjK0BdC1xXxO1hPDvwx8SeIpiAmn6PqVx1xkxWzydfbbn2rtMrXL+OfCsfjzwHr/gSa4e1i17TbnTZJouXjW7ieIuFyofbvztLChCezsf5WHjfT9D8aeHv+FceKreU2l35UhWGcxHcUBR9wILEH7q9Dzmvlf8AZWsvEnhzxN4r+H8n+k6XYyKYwGPlrdIxAAzyuU5kX1GehFf1Hfti/wDBE7x1+yzptpfaZ8TtI1+0uHFvawyW0+n6lLGRje6KZ41VduC28Zx0HU/lze/so/F/wFY/2boGhW99ZK4fGnXMfJJ5bypWSRmO45yCSK6ovQ8iUZq9z4z+I934rTwfcD4cx2/9tOXKyXBlUwxR5B8hVO0zNt58wYI4HINeV/Av4sav8UdGurPXd8Os6Y6CdkRDFKCdqsRtG1gQQQDjIz1Jr6D8WeCfHHhqee91jR9R0yXqJLy2eGNMknkujAjJPCv+FeYfDjwX4f8AAVjd3On3SXt5qE/nXUkeNm7OQqDso649SauL1M3sdTrOut4ci+261d2dvFu2ebPJ9mQtnpksVJJ9/wAK1Wm1OGNZ2t2fzPu4dX3f7u7B/KtfTddsdJW5+3W63kctvJC8bRpKrbyDyrkAjqDyPavKfEGhWGl3D3fwfibQBI377TbhvtGmTp38pC7vbknJyhx6VZmblxqcUKhr5HswZAMzAKuW4HzdOTwB1p0d3Z3iebpTxzxsT80LiRSR15XPI714l8fbi/1zwdpvhuZvKiuZTNcrEpfP2fYVVWbDgAknnmvhe60rWNH8QNpWhmSSez2O89pHIJB5ihudmSOvQjrTasVFH6nJMoXzc8kkD8Kc5ATzIyCe+en/AOuvmP4A+Jde8UjV7TXdRnvbawEIiZiFYFy4bryduBnPTPNfQNy8kUSpcaku1UX/AI+EAxx03UhvYlmlZDhfunkn39qhcMY8gkfWstdTjf8A0Yz20zn5lWN2YkeoA96itdVa8uZtN+zyebbFfMUbtyhxlcqwDfNgkcYPbvQQbZjkBBIJG3rRLOgi2qQTmsaTWNNhjQyzCAzNiLzf3W72G7GfwqVJhcMFGC2cYU5yRzQOzNFJmaEov3jjB9K73wR45TwrcXkbE7mljJx3wDk15nG5yQnOQGGPT1rzTxfrMmn666BipZVIHrnOPzxQJn6P/Df49aXeeN/DmiPnMF+b3jqPs1nckfqQPqRX6AR/tOeELSIxXUzx52qGK7u+5j69sfWv5+Pgnqj3PxWsrgs2ILe7cn03KE/9mr7O8N6Xqnj7XP7E05yEjy88h+6kYPr0GTkCuHEfGbwdlc/tJ/4J+/tt/s6aZ8D9P8CeIfFNro+rSXl1dCG/jltkdJpCU/eOFTOOMZzgZ6Gv1k0z4g+G9atY73S76K6ilGUeKRXUj2IPIr+GCwhSKNLWE7Y4VVEDZ6BR1HrmvUfB/wARvHfge4W68Iatd6Yytu/dSkgn6EkdhWcXZ3OuFXQ/tutfEVhKpAkyQemeavrrNsfunNfyleBP+Cgvxt8LzqddlXUYVGC+cOfqPWvsXwR/wU8sbx44Nat2t88Hccfzque+hXtL6H78xarE68Y6+tTfb4mPzYzX5beEf23/AADr6gRz8k8gOPb3r6A0f9oTwvqSBrScEH1cVUNxxep9lmVX5HFJkV872HxOsrtlKS5BGeGrurHxXHcqPLfj3NXPYs9PByMjmjviuYtdXDADcMH3rdgvIeMENn0rIDVhBC8+tS1GkyuPSrEaqwzkUAR0uCelWPJFJt28UAZ8yNuzg9Kr1qyAleKzjHJk/KfyoA//1v7cKKKK4zeC1CiiiguewUUUUEQWoUUUUGoUUUUEz2CiiigxCmvNMoVFbCg7gMdT7n0p1RuCTxQB8gftF/sf/CH48Tf8JT4tiuzqtvD5MMsVw6qmSx+4PlIBPXGefavwO+Lf7KHxK+GmqTxpZ/bLIOTG8Kln25IBbCjsOtf1VPt2lJFyDXB+IPAGga1A6zRZ39RgY/WgTV9D+PHUfD2qafI/nwTwdmyrc/X5TXjXij4PfDTxdEyeJfD2magG6tPaRCT/AL+Kok/8eH0r+tPxt+zB4O1WJ/MsI3LDqVGf0r5S8WfsS+CLlWC2YUleoGMUXa2JlRurH8rviH9ib4Ha0hbT7e/0Z1HB068cAf8AALjzkP6fSvFNR/YJtWdv7P8AFVyUPEYuLONiPZmjkUk/RRX9PniH9hPQokd9PM0bf7LcfrXhOu/sbeJLFcWU7yqDn5+g/CqjUqJ3MZ0LI/mC8e/sDfFgW/2fSbjRtajG5kV5ZrSQFuCPnDLyAP8AloPoOp+fr79mH4m+DLW5t9a8BagxkZZJLjTlN2DtGBiW2eR8AD7uBjr3r+pXXP2bfH2lSuyW0cw68Aj+deLeIvhzrejSqmo2U0YHzHCuPxyF9vWtFiJ+pn7Jn8wsd/Z+GoY9FneSz+zuxWK8Z45NzfwsJQGIHoe+a1dO1bSdNna7a0sp5Tz5jwq7Nn0bt9M/zr+iLWPD+namhtNTjiu4gfuXSrOMemGDV8/+J/2TfgJ4kkkub7wjYJPL1ls1ayk+ubdoxn6gmrjiG37y0JlS0Py0tPiQi2sMLB0A+by0IjQ8rwOvJx0yOnSvNtW1COX4i6pql0rER2mnpIG+QmSIzOfmBB+66g1+llz+wT8IIsizutZtkkcblW4SUKGBHAkjbOPfJ968k1z9gjWrIXEXg3xTEUuMEpf2LLuIULlpYZGOcAD/AFWOK1jWhcz9nbU/LP4seA/DvjuO51/T45bXUVUvCwuXmiREjUsoEjEAOTjIOAR0rW+Cl5fa78NrS68RRGWRHMKOV+Z4VICsT94FSxGBwQM96+vNf/Yw+Plhay2zaXZaxaKArf2ZdwiUgHsLlIWOfQZ+vp5f4i8D+OfBtgtp4m8NavodjHhI5JbCQxJtII/eICnXOSGxVupB6INTwb4o3/jzwtdXGp+Bp7G8sLLDSgFzPLGeMlGx8oxjA9M964BPFlr428NW3iZPku5J5EuAAAiNEqkbR2XDDGe+a9U+3/2kPItf9JvXBXHmIY2LAAgnOVCjBCnuTXJXPw+uLK70v4eeCoLjVdUuzLIsEas89zcS7R+7UAnACgHjAAz3pcyWpMlodN8Aku7r4imGyVpbk2UqxIoyWkkkiGMDk1+2vwz+Htv4L8PrZyorXU3zXUg6lj/CPYfzrzb9lX9jO7+Dtn/wmfxAQXXim9gKPbqwa1s1zvCqw+9KCPmcccheoNfZTaJGjFEQr8zdTuJ5PJIrzqs7yNIp2OV27ZNvpxkd6vx8J83Fdjp3g3U7+UC2ibaeMlTXqGjfBu9uHU3nA+nFQaRjd6nhcFrcTsBEpIPoK6zTvDN/cuE2lR6kYNfUmk/CaxtQNwyQeuK7a38DadbkfJnHtQa+zR86+HvD+u2EpNnPIjDp1Ar6P8J+LvGejQqjzM2BW7b+H9PiXOytOPTrYH5VwKL21HGFnc+hfh58Zdbwi3bE4GOa+2vBXxSa8t1LHnGMZr8xdJMVoSkY5617h4V8TT2JRRIPujvTjO7saRP1M0fxmsqR7yBkV6Xp/iKI4wQfxr8/PDPjiSRI98gJHHWvdtF8WPIVYtVln2BaazFIAW4PvW5DfJKQVIFfPWm+I/OUNuHp1rt7HXTwM/rRYD2EXA7n9aeJAep9q8/TWTIw+b9a0V1N2H+7yKAOyzRXKx6nLjJHJ5xUv9oT/wB0/lQB/9f+3CiiiuJ7HYFFFFTEAoooqnsAUUUVMQCiiirJnsFFFFBlZhRRRQFmRuCTxSbAyfN1qWo3BJ4oCzM6a1jkQqwzWBc6DbyxlfLBz611mCOtGwNyaAszxzUvBdq4KtEvPtXAaj8ObGUFTEvPtX03NbxOMsM1mvpkEo3MvNAWZ8Z6p8JdIkyssCkkeleb6r8DfD1yxSS2ByPQY/UV9/z6JG33YwfrWJc+H0J+aNQaBWPy68Qfsq+DdTR1m02Nie4UZ/MV4P4g/Yg8GGN/s9o8JPOAc/jX7SzeGbZv9YoB9qxbnwnaSfL5YP1ppX0E1fQ/ALWf2IGiVm0t5UHoDxn8a8Y179j/AMa2is0AMoA6Nz+or+kK48BWjAr5K8+1c5d/DKwZCHtwwPtT9mhezP5fdW/Z38dacpE2mMVzn5GyPy61yo+GeuaXJlILi0IGTt3oCf5/pX9Pt38IdEmU7rNfoRzXDan8CPDFxnfp8fTutHI1sHsz+ZvUP2d/Avjtz/wnmg6VrKkcm+s45pMegd0Zh68Y613Hwu/Zb/Z6+DOp3XiT4Y+D7HSdRv4hDPcRB5JSmSdqGVmEa5Ofk29elfvPq37NfhC4BDaeik914rynWP2UdGJJs4ivHrUyjJqzYezPzMm8F+HrljutVz0O35V/DPX60tn4A8MRNkWwznPqK+5dR/Zb1C2JayJX/ZNcFqfwH8a2BJihEgAzzwaycLA4WPny30rToDtitlXHAwK1DAiuBswMdq7HUPAHi6xYrdWJ49M1g/2Xf2gKzW7x855BqbMVmVwFUYUYp2CelBBHWnxkMODmizER4I61NGCRxTig6scfWpI9oGFIP0pANVZAd6nGK17HVZ7Zxms/B61ESN4NDdgPYtA8YSwMCWxg+te9+GvHskhUSOBz3NfGCSlMMjDr0ruNH1edAuG6H1qqdR3A/RLRfFhKKVYHPvXqOl+JDIBucZz0zXwb4f8AFF2WRA1e86Frsg2iRhk+9b899Con1pY60GwSw/Oupg1gHADD86+fNO1hnA5rt7DUS+CaRR7JDqJfBJrSGocdRXnFrf8AHWtQXxx1oA//0P7cKKKK887AooooJnsFFFFBENwooooNQoooqogFFFFN7AFFFFQAUUUVUQI3BJ4pmGqeiqAr4I60U9+tMpPYA2BuTVWe1WRw3tVqilEmexlPZR55XP4VVlsIi3Tb9a36hkiEhyaoxObk0yJjmoX0uPbxXT/Zlo+zLQBwsmjxFvmQn8KqTaJER8qD8a76WFVbFVnt1c5oA8xuPDqvyY1rJk8LxuOY1r157NStUDYoTmgDxufwdBJy8QJ+lc9f+BLWT5WtwePSvfZbOMNg1C9hG65oA+Wr34Z6bIpVokXPYrXA6n8G9Enz5lqkhPfbX2m+mxFTwD9azZNItpFLOo/CgD8+dU+APh+UEi1VCR6V5xqX7OunAnyo8H2FfprcaHbdlH41h3Hh62c5KrTSvoJ7H5W337Pk6AmIfmK5mT4IalCpKp+lfqxeeGbRlztWucl8LWuxvlXrSlT0FE/LCb4R6smV8s/kazG+FeqR8GMn/gJr9O7rwnZsc7VrHl8I2eCdq/lWfs0N7H5uJ8OL+JtrRH16Gtux8A3yuMJgfSvvKXwjZb+VX8qhPhC0HzqFGPaqjTVyD5W0jwdc20il15HoK9a0vRnVlbBOPavU4PD8S8YXrW3BoMCDccZ9q0cLalRMDSrZkkXcCPrXc2aYPyjP0ottNjxXR2dgiLgetSUT2v3RWrTY7ZVbbV7yloA//9k=;" parent="1" vertex="1">
          <mxGeometry x="950" y="306.92" width="163.1" height="123.08" as="geometry" />
        </mxCell>
        <mxCell id="oJCOY9mhAsnQ8i2lRgI8-32" value="" style="endArrow=classic;html=1;rounded=0;entryX=0.168;entryY=-0.019;entryDx=0;entryDy=0;entryPerimeter=0;" parent="1" edge="1">
          <mxGeometry width="50" height="50" relative="1" as="geometry">
            <mxPoint x="1090" y="340" as="sourcePoint" />
            <mxPoint x="1126.95950577635" y="309.9971114395348" as="targetPoint" />
          </mxGeometry>
        </mxCell>
        <mxCell id="y5K2M07fjjBGlo7hxbQY-6" value="" style="edgeStyle=orthogonalEdgeStyle;rounded=0;orthogonalLoop=1;jettySize=auto;html=1;entryX=-0.015;entryY=0.662;entryDx=0;entryDy=0;entryPerimeter=0;exitX=1;exitY=0.25;exitDx=0;exitDy=0;" parent="1" source="y5K2M07fjjBGlo7hxbQY-1" target="y5K2M07fjjBGlo7hxbQY-3" edge="1">
          <mxGeometry relative="1" as="geometry">
            <mxPoint x="930" y="380" as="sourcePoint" />
            <mxPoint x="960" y="380" as="targetPoint" />
          </mxGeometry>
        </mxCell>
        <mxCell id="y5K2M07fjjBGlo7hxbQY-7" value="" style="endArrow=classic;html=1;rounded=0;" parent="1" source="y5K2M07fjjBGlo7hxbQY-3" edge="1">
          <mxGeometry width="50" height="50" relative="1" as="geometry">
            <mxPoint x="1130" y="220" as="sourcePoint" />
            <mxPoint x="1140" y="260" as="targetPoint" />
          </mxGeometry>
        </mxCell>
        <mxCell id="e5zRnaV3rmbSmfXPNEuA-1" value="" style="edgeStyle=orthogonalEdgeStyle;rounded=0;orthogonalLoop=1;jettySize=auto;html=1;dashed=1;" edge="1" parent="1" source="e5zRnaV3rmbSmfXPNEuA-2">
          <mxGeometry relative="1" as="geometry">
            <mxPoint x="80" y="370" as="targetPoint" />
          </mxGeometry>
        </mxCell>
        <mxCell id="e5zRnaV3rmbSmfXPNEuA-2" value="&lt;div&gt;&lt;font style=&quot;font-size: 14px;&quot;&gt;Blockly code generation logic&lt;/font&gt;&lt;/div&gt;" style="rounded=0;whiteSpace=wrap;html=1;fillColor=#FFF4C3;" vertex="1" parent="1">
          <mxGeometry x="-60" y="320" width="100" height="100" as="geometry" />
        </mxCell>
        <mxCell id="e5zRnaV3rmbSmfXPNEuA-3" value="" style="edgeStyle=orthogonalEdgeStyle;rounded=0;orthogonalLoop=1;jettySize=auto;html=1;" edge="1" parent="1" source="e5zRnaV3rmbSmfXPNEuA-4" target="e5zRnaV3rmbSmfXPNEuA-2">
          <mxGeometry relative="1" as="geometry" />
        </mxCell>
        <mxCell id="e5zRnaV3rmbSmfXPNEuA-4" value="&lt;div&gt;&lt;font style=&quot;font-size: 14px;&quot;&gt;Blockly&lt;/font&gt;&lt;/div&gt;&lt;div&gt;&lt;font style=&quot;font-size: 14px;&quot;&gt;visual program&lt;/font&gt;&lt;/div&gt;" style="shape=document;whiteSpace=wrap;html=1;boundedLbl=1;size=0.125;" vertex="1" parent="1">
          <mxGeometry x="-200" y="320" width="100" height="100" as="geometry" />
        </mxCell>
        <mxCell id="e5zRnaV3rmbSmfXPNEuA-5" value="&lt;font style=&quot;font-size: 14px;&quot;&gt;WebPBrick&#39;s BlockNQC&lt;/font&gt;" style="rounded=0;whiteSpace=wrap;html=1;fillColor=#FFF4C3;" vertex="1" parent="1">
          <mxGeometry x="-200" y="480" width="240" height="40" as="geometry" />
        </mxCell>
        <mxCell id="e5zRnaV3rmbSmfXPNEuA-6" value="generate code" style="text;html=1;align=center;verticalAlign=middle;whiteSpace=wrap;rounded=0;rotation=0;fontSize=14;" vertex="1" parent="1">
          <mxGeometry x="-60" y="420" width="100" height="60" as="geometry" />
        </mxCell>
        <mxCell id="e5zRnaV3rmbSmfXPNEuA-7" value="design" style="text;html=1;align=center;verticalAlign=middle;whiteSpace=wrap;rounded=0;rotation=0;fontSize=14;" vertex="1" parent="1">
          <mxGeometry x="-200" y="420" width="100" height="60" as="geometry" />
        </mxCell>
        <mxCell id="e5zRnaV3rmbSmfXPNEuA-8" value="(manually)&lt;br&gt;&lt;div&gt;copy code&lt;/div&gt;" style="text;html=1;align=center;verticalAlign=middle;whiteSpace=wrap;rounded=0;rotation=0;fontSize=14;" vertex="1" parent="1">
          <mxGeometry x="10" y="260" width="100" height="60" as="geometry" />
        </mxCell>
      </root>
    </mxGraphModel>
  </diagram>
</mxfile>
